<?xml version="1.0" encoding="utf-8"?>
<!-- Generator: Adobe Illustrator 21.0.0, SVG Export Plug-In . SVG Version: 6.00 Build 0)  -->
<svg version="1.1" id="Layer_1" xmlns="http://www.w3.org/2000/svg" xmlns:xlink="http://www.w3.org/1999/xlink" x="0px" y="0px"
	 viewBox="0 0 316.5 155" style="enable-background:new 0 0 416.5 195;" xml:space="preserve">
<style type="text/css">
	.st0{fill:url(#SVGID_1_);}
	.st1{fill:#1B1E28;}
	.st2{fill:#1B1E28;stroke:#1B1E28;stroke-width:6;stroke-miterlimit:10;}
	.st3{fill:url(#SVGID_2_);}
</style>
<linearGradient id="SVGID_1_" gradientUnits="userSpaceOnUse" x1="311.0862" y1="82.1444" x2="366.7277" y2="114.2691">
	<stop  offset="0" style="stop-color:#5A7CD9"/>
	<stop  offset="0.2819" style="stop-color:#4799C9"/>
	<stop  offset="0.7579" style="stop-color:#29C4B0"/>
	<stop  offset="1" style="stop-color:#1ED5A7"/>
</linearGradient>
<circle class="st0" cx="338.9" cy="98.2" r="32.1"/>
<path id="XMLID_1_" class="st1" d="M26.6,145.7v-14.6c0-0.9,0.3-1.8,0.9-2.4l80.1-89.4H31.4c-2,0-3.6-1.6-3.6-3.6V20.6
	c0-2,1.6-3.6,3.6-3.6h106.2c2,0,3.6,1.6,3.6,3.6v14.8c0,0.9-0.3,1.8-0.9,2.4l-80,89.2h77.4c2,0,3.6,1.6,3.6,3.6v15.1
	c0,2-1.6,3.6-3.6,3.6H30.2C28.2,149.3,26.6,147.7,26.6,145.7z M159,149.3h16.7c2.1,0,3.9-1.7,3.9-3.9V51c0-2.1-1.7-3.9-3.9-3.9H159
	c-2.1,0-3.9,1.7-3.9,3.9v94.5C155.1,147.6,156.9,149.3,159,149.3z M158.4,40.2h17.8c2.1,0,3.9-1.7,3.9-3.9V20.9
	c0-2.1-1.7-3.9-3.9-3.9h-17.8c-2.1,0-3.9,1.7-3.9,3.9v15.5C154.6,38.5,156.3,40.2,158.4,40.2z M200.3,13.6v132c0,2,1.6,3.7,3.7,3.7
	h17c2,0,3.7-1.6,3.7-3.7v-132c0-2-1.6-3.7-3.7-3.7h-17C201.9,9.9,200.3,11.6,200.3,13.6z M245.4,13.7v131.9c0,2.1,1.7,3.7,3.7,3.7
	h17c2.1,0,3.7-1.7,3.7-3.7V13.7c0-2.1-1.7-3.7-3.7-3.7h-17C247.1,9.9,245.4,11.6,245.4,13.7z M369,141.1v4.6c0,2,1.6,3.6,3.6,3.6
	h17.2c2,0,3.6-1.6,3.6-3.6v-95c0-2-1.6-3.6-3.6-3.6h-17.5c-1.9,0-3.4,1.5-3.4,3.4v4.9c-8.2-6.4-18.9-9.8-31.2-9.8
	c-30.9,0-53.3,22.1-53.3,52.6s22.4,52.6,53.3,52.6C350.1,150.8,360.7,147.5,369,141.1z M369.8,98.2c0,15.2-9.4,30.7-30.1,30.7
	c-14.9,0-30.9-9.6-30.9-30.7s16-30.7,30.9-30.7C360.5,67.5,369.8,83,369.8,98.2z"/>
<path class="st2" d="M406.6,170.8l-2.8,3l-0.7,0.7l-3.7,3.9l-0.7,0.7l-2.3,2.4l-2.9,3c-0.3,0.3-0.8,0.5-1.3,0.5h-380
	c-1,0-1.8-0.9-1.8-1.8c0-0.4,0.2-0.8,0.5-1.2l0.6-0.6l2.3-2.4l0.7-0.7l3.8-3.9l0.7-0.7l5.2-5.4c0.3-0.3,0.8-0.5,1.2-0.5h379.9
	C406.9,167.8,407.7,169.6,406.6,170.8z"/>
<linearGradient id="SVGID_2_" gradientUnits="userSpaceOnUse" x1="60.8436" y1="90.9998" x2="356.7619" y2="261.8483">
	<stop  offset="0" style="stop-color:#0D9B76"/>
	<stop  offset="0.1047" style="stop-color:#1F948D"/>
	<stop  offset="0.3206" style="stop-color:#3F87B6"/>
	<stop  offset="0.4907" style="stop-color:#537FD0"/>
	<stop  offset="0.5928" style="stop-color:#5A7CD9"/>
	<stop  offset="0.8652" style="stop-color:#30BBB6"/>
	<stop  offset="1" style="stop-color:#1ED5A7"/>
</linearGradient>
<polygon class="st3" points="407.2,174.5 403.5,178.4 10.4,178.4 14.1,174.5 "/>
</svg>
