<?xml version="1.0" encoding="UTF-8"?>
<svg xmlns="http://www.w3.org/2000/svg" xmlns:xlink="http://www.w3.org/1999/xlink" width="300px" height="140px" viewBox="0 0 299 140" version="1.1">
<defs>
<linearGradient id="linear0" gradientUnits="userSpaceOnUse" x1="311.0862" y1="82.1444" x2="366.7277" y2="114.2691" gradientTransform="matrix(0.717026,0,0,0.717949,0.179257,0)">
<stop offset="0" style="stop-color:rgb(35.294118%,48.627451%,85.098039%);stop-opacity:1;"/>
<stop offset="0.2819" style="stop-color:rgb(27.843137%,60%,78.823529%);stop-opacity:1;"/>
<stop offset="0.7579" style="stop-color:rgb(16.078431%,76.862745%,69.019608%);stop-opacity:1;"/>
<stop offset="1" style="stop-color:rgb(11.764706%,83.529412%,65.490196%);stop-opacity:1;"/>
</linearGradient>
<linearGradient id="linear1" gradientUnits="userSpaceOnUse" x1="60.8436" y1="90.9998" x2="356.7619" y2="261.8483" gradientTransform="matrix(0.717026,0,0,0.717949,0.179257,0)">
<stop offset="0" style="stop-color:rgb(5.098039%,60.784314%,46.27451%);stop-opacity:1;"/>
<stop offset="0.1047" style="stop-color:rgb(12.156863%,58.039216%,55.294118%);stop-opacity:1;"/>
<stop offset="0.3206" style="stop-color:rgb(24.705882%,52.941176%,71.372549%);stop-opacity:1;"/>
<stop offset="0.4907" style="stop-color:rgb(32.54902%,49.803922%,81.568627%);stop-opacity:1;"/>
<stop offset="0.5928" style="stop-color:rgb(35.294118%,48.627451%,85.098039%);stop-opacity:1;"/>
<stop offset="0.8652" style="stop-color:rgb(18.823529%,73.333333%,71.372549%);stop-opacity:1;"/>
<stop offset="1" style="stop-color:rgb(11.764706%,83.529412%,65.490196%);stop-opacity:1;"/>
</linearGradient>
</defs>
<g id="surface1">
<path style=" stroke:none;fill-rule:nonzero;fill:url(#linear0);" d="M 266.195312 70.503906 C 266.195312 83.230469 255.890625 93.546875 243.179688 93.546875 C 230.46875 93.546875 220.164062 83.230469 220.164062 70.503906 C 220.164062 57.773438 230.46875 47.457031 243.179688 47.457031 C 255.890625 47.457031 266.195312 57.773438 266.195312 70.503906 Z M 266.195312 70.503906 "/>
<path style=" stroke:none;fill-rule:nonzero;fill:rgb(100%,100%,100%);fill-opacity:1;" d="M 19.253906 104.605469 L 19.253906 94.125 C 19.253906 93.476562 19.46875 92.832031 19.898438 92.398438 L 77.332031 28.214844 L 22.695312 28.214844 C 21.261719 28.214844 20.113281 27.066406 20.113281 25.628906 L 20.113281 14.789062 C 20.113281 13.355469 21.261719 12.207031 22.695312 12.207031 L 98.84375 12.207031 C 100.277344 12.207031 101.421875 13.355469 101.421875 14.789062 L 101.421875 25.414062 C 101.421875 26.0625 101.207031 26.707031 100.777344 27.136719 L 43.414062 91.179688 L 98.914062 91.179688 C 100.347656 91.179688 101.496094 92.328125 101.496094 93.765625 L 101.496094 104.605469 C 101.496094 106.042969 100.347656 107.191406 98.914062 107.191406 L 21.832031 107.191406 C 20.398438 107.191406 19.253906 106.042969 19.253906 104.605469 Z M 114.1875 107.191406 L 126.160156 107.191406 C 127.667969 107.191406 128.957031 105.96875 128.957031 104.390625 L 128.957031 36.617188 C 128.957031 35.109375 127.738281 33.816406 126.160156 33.816406 L 114.1875 33.816406 C 112.679688 33.816406 111.390625 35.035156 111.390625 36.617188 L 111.390625 104.460938 C 111.390625 105.96875 112.679688 107.191406 114.1875 107.191406 Z M 113.757812 28.863281 L 126.519531 28.863281 C 128.023438 28.863281 129.316406 27.640625 129.316406 26.0625 L 129.316406 15.003906 C 129.316406 13.496094 128.097656 12.207031 126.519531 12.207031 L 113.757812 12.207031 C 112.25 12.207031 110.960938 13.425781 110.960938 15.003906 L 110.960938 26.132812 C 111.03125 27.640625 112.25 28.863281 113.757812 28.863281 Z M 143.800781 9.765625 L 143.800781 104.535156 C 143.800781 105.96875 144.945312 107.191406 146.453125 107.191406 L 158.640625 107.191406 C 160.074219 107.191406 161.296875 106.042969 161.296875 104.535156 L 161.296875 9.765625 C 161.296875 8.328125 160.148438 7.109375 158.640625 7.109375 L 146.453125 7.109375 C 144.945312 7.109375 143.800781 8.328125 143.800781 9.765625 Z M 176.136719 9.835938 L 176.136719 104.535156 C 176.136719 106.042969 177.355469 107.191406 178.789062 107.191406 L 190.980469 107.191406 C 192.484375 107.191406 193.632812 105.96875 193.632812 104.535156 L 193.632812 9.835938 C 193.632812 8.328125 192.414062 7.179688 190.980469 7.179688 L 178.789062 7.179688 C 177.355469 7.109375 176.136719 8.328125 176.136719 9.835938 Z M 264.761719 101.300781 L 264.761719 104.605469 C 264.761719 106.042969 265.910156 107.191406 267.34375 107.191406 L 279.675781 107.191406 C 281.109375 107.191406 282.257812 106.042969 282.257812 104.605469 L 282.257812 36.398438 C 282.257812 34.964844 281.109375 33.816406 279.675781 33.816406 L 267.128906 33.816406 C 265.765625 33.816406 264.691406 34.890625 264.691406 36.257812 L 264.691406 39.773438 C 258.8125 35.179688 251.136719 32.738281 242.320312 32.738281 C 220.164062 32.738281 204.101562 48.605469 204.101562 70.503906 C 204.101562 92.398438 220.164062 108.265625 242.320312 108.265625 C 251.210938 108.265625 258.8125 105.898438 264.761719 101.300781 Z M 265.335938 70.503906 C 265.335938 81.414062 258.59375 92.542969 243.753906 92.542969 C 233.070312 92.542969 221.597656 85.652344 221.597656 70.503906 C 221.597656 55.355469 233.070312 48.460938 243.753906 48.460938 C 258.667969 48.460938 265.335938 59.589844 265.335938 70.503906 Z M 265.335938 70.503906 "/>
<path style="fill-rule:nonzero;fill:rgb(100%,100%,100%);fill-opacity:1;stroke-width:6;stroke-linecap:butt;stroke-linejoin:miter;stroke:rgb(100%,100%,100%);stroke-opacity:1;stroke-miterlimit:10;" d="M 406.600661 170.799107 L 403.800468 173.802455 L 403.097695 174.498884 L 399.398607 178.399972 L 398.701283 179.101842 L 396.402291 181.501256 L 393.498589 184.499163 C 393.198957 184.79841 392.697756 184.999721 392.202001 184.999721 L 12.19833 184.999721 C 11.201374 184.999721 10.400541 184.101981 10.400541 183.1988 C 10.400541 182.801618 10.602111 182.398996 10.901743 182.001814 L 11.501006 181.397879 L 13.799997 178.998465 L 14.497322 178.302037 L 18.299919 174.400949 L 19.002691 173.699079 L 24.199937 168.301758 C 24.499569 168.002511 25.000771 167.8012 25.398464 167.8012 L 405.298626 167.8012 C 406.900293 167.8012 407.701126 169.602121 406.600661 170.799107 Z M 406.600661 170.799107 " transform="matrix(0.717026,0,0,0.717949,0.179257,0)"/>
<path style=" stroke:none;fill-rule:nonzero;fill:url(#linear1);" d="M 292.152344 125.28125 L 289.5 128.082031 L 7.636719 128.082031 L 10.289062 125.28125 Z M 292.152344 125.28125 "/>
</g>
</svg>
