<?xml version="1.0" encoding="UTF-8"?>
<svg xmlns="http://www.w3.org/2000/svg" xmlns:xlink="http://www.w3.org/1999/xlink" width="300px" height="147px" viewBox="0 0 300 147" version="1.1">
<defs>
<linearGradient id="linear0" gradientUnits="userSpaceOnUse" x1="311.0862" y1="82.1444" x2="366.7277" y2="114.2691" gradientTransform="matrix(0.946372,0,0,0.948387,0.236593,0)">
<stop offset="0" style="stop-color:rgb(35.294118%,48.627451%,85.098039%);stop-opacity:1;"/>
<stop offset="0.2819" style="stop-color:rgb(27.843137%,60%,78.823529%);stop-opacity:1;"/>
<stop offset="0.7579" style="stop-color:rgb(16.078431%,76.862745%,69.019608%);stop-opacity:1;"/>
<stop offset="1" style="stop-color:rgb(11.764706%,83.529412%,65.490196%);stop-opacity:1;"/>
</linearGradient>
</defs>
<g id="surface1">
<path style=" stroke:none;fill-rule:nonzero;fill:url(#linear0);" d="M 351.339844 93.132812 C 351.339844 109.945312 337.738281 123.574219 320.960938 123.574219 C 304.183594 123.574219 290.582031 109.945312 290.582031 93.132812 C 290.582031 76.316406 304.183594 62.6875 320.960938 62.6875 C 337.738281 62.6875 351.339844 76.316406 351.339844 93.132812 Z M 351.339844 93.132812 "/>
<path style=" stroke:none;fill-rule:nonzero;fill:rgb(10.588235%,11.764706%,15.686275%);fill-opacity:1;" d="M 25.410156 138.179688 L 25.410156 124.332031 C 25.410156 123.480469 25.695312 122.625 26.261719 122.058594 L 102.066406 37.273438 L 29.953125 37.273438 C 28.058594 37.273438 26.546875 35.753906 26.546875 33.855469 L 26.546875 19.535156 C 26.546875 17.640625 28.058594 16.121094 29.953125 16.121094 L 130.457031 16.121094 C 132.351562 16.121094 133.863281 17.640625 133.863281 19.535156 L 133.863281 33.574219 C 133.863281 34.425781 133.582031 35.28125 133.011719 35.847656 L 57.304688 120.445312 L 130.550781 120.445312 C 132.445312 120.445312 133.960938 121.960938 133.960938 123.859375 L 133.960938 138.179688 C 133.960938 140.078125 132.445312 141.59375 130.550781 141.59375 L 28.816406 141.59375 C 26.925781 141.59375 25.410156 140.078125 25.410156 138.179688 Z M 150.710938 141.59375 L 166.515625 141.59375 C 168.5 141.59375 170.203125 139.980469 170.203125 137.894531 L 170.203125 48.367188 C 170.203125 46.375 168.597656 44.667969 166.515625 44.667969 L 150.710938 44.667969 C 148.722656 44.667969 147.019531 46.28125 147.019531 48.367188 L 147.019531 137.992188 C 147.019531 139.980469 148.722656 141.59375 150.710938 141.59375 Z M 150.140625 38.125 L 166.988281 38.125 C 168.976562 38.125 170.679688 36.511719 170.679688 34.425781 L 170.679688 19.820312 C 170.679688 17.828125 169.070312 16.121094 166.988281 16.121094 L 150.140625 16.121094 C 148.15625 16.121094 146.449219 17.734375 146.449219 19.820312 L 146.449219 34.519531 C 146.546875 36.511719 148.15625 38.125 150.140625 38.125 Z M 189.796875 12.898438 L 189.796875 138.085938 C 189.796875 139.980469 191.308594 141.59375 193.296875 141.59375 L 209.386719 141.59375 C 211.277344 141.59375 212.886719 140.078125 212.886719 138.085938 L 212.886719 12.898438 C 212.886719 11 211.371094 9.390625 209.386719 9.390625 L 193.296875 9.390625 C 191.308594 9.390625 189.796875 11 189.796875 12.898438 Z M 232.476562 12.992188 L 232.476562 138.085938 C 232.476562 140.078125 234.085938 141.59375 235.976562 141.59375 L 252.066406 141.59375 C 254.054688 141.59375 255.566406 139.980469 255.566406 138.085938 L 255.566406 12.992188 C 255.566406 11 253.960938 9.484375 252.066406 9.484375 L 235.976562 9.484375 C 234.085938 9.390625 232.476562 11 232.476562 12.992188 Z M 349.449219 133.816406 L 349.449219 138.179688 C 349.449219 140.078125 350.960938 141.59375 352.855469 141.59375 L 369.132812 141.59375 C 371.023438 141.59375 372.539062 140.078125 372.539062 138.179688 L 372.539062 48.082031 C 372.539062 46.1875 371.023438 44.667969 369.132812 44.667969 L 352.570312 44.667969 C 350.773438 44.667969 349.351562 46.089844 349.351562 47.894531 L 349.351562 52.539062 C 341.59375 46.472656 331.46875 43.246094 319.828125 43.246094 C 290.582031 43.246094 269.386719 64.207031 269.386719 93.132812 C 269.386719 122.058594 290.582031 143.015625 319.828125 143.015625 C 331.5625 143.015625 341.59375 139.886719 349.449219 133.816406 Z M 350.203125 93.132812 C 350.203125 107.546875 341.308594 122.246094 321.71875 122.246094 C 307.617188 122.246094 292.476562 113.144531 292.476562 93.132812 C 292.476562 73.121094 307.617188 64.015625 321.71875 64.015625 C 341.402344 64.015625 350.203125 78.714844 350.203125 93.132812 Z M 350.203125 93.132812 "/>
<path style="fill:none;stroke-width:6;stroke-linecap:butt;stroke-linejoin:miter;stroke:rgb(10.588235%,11.764706%,15.686275%);stroke-opacity:1;stroke-miterlimit:10;" d="M 406.599688 170.799851 L 403.801172 173.798363 L 403.099479 174.498565 L 399.401146 178.399102 L 398.699453 179.099304 L 396.400378 181.500585 L 393.498672 184.499097 C 393.201484 184.799771 392.702044 185.001594 392.198477 185.001594 L 12.198854 185.001594 C 11.199974 185.001594 10.399219 184.09957 10.399219 183.201663 C 10.399219 182.798018 10.601471 182.398491 10.898659 181.998964 L 11.501289 181.401733 L 13.800365 179.000452 L 14.502057 178.30025 L 18.299453 174.399713 L 19.001146 173.699511 L 24.201927 168.299718 C 24.499115 167.999043 24.998555 167.801339 25.398932 167.801339 L 405.299492 167.801339 C 406.901003 167.801339 407.701758 169.60127 406.599688 170.799851 Z M 406.599688 170.799851 " transform="matrix(0.946372,0,0,0.948387,0.236593,0)"/>
</g>
</svg>
