<?xml version="1.0" encoding="utf-8"?>
<!-- Generator: Adobe Illustrator 21.0.0, SVG Export Plug-In . SVG Version: 6.00 Build 0)  -->
<svg version="1.1" id="Layer_1" xmlns="http://www.w3.org/2000/svg" xmlns:xlink="http://www.w3.org/1999/xlink" x="0px" y="0px"
	 viewBox="0 0 460 230" style="enable-background:new 0 0 460 230;" xml:space="preserve">
<style type="text/css">
	.st0{fill:#EAEFEF;}
	.st1{fill:none;stroke:#1B1E28;stroke-width:1.5;stroke-linecap:round;stroke-miterlimit:10;stroke-dasharray:5,5;}
	.st2{fill:none;stroke:#0D9B76;stroke-width:1.5;stroke-miterlimit:10;}
	.st3{fill:none;stroke:#5A7CD9;stroke-width:1.5;stroke-miterlimit:10;}
	.st4{fill:none;stroke:#1ED5A7;stroke-width:1.5;stroke-miterlimit:10;}
	.st5{fill:#FFFFFF;stroke:url(#SVGID_1_);stroke-width:3;stroke-miterlimit:10;}
	.st6{display:none;}
	.st7{display:inline;fill:#0D9B76;}
	.st8{fill:none;stroke:#7AC943;stroke-miterlimit:10;}
	.st9{fill:#1B1E28;}
	.st10{fill:#252933;}
	.st11{fill:none;stroke:#FFFFFF;stroke-width:1.6826;stroke-miterlimit:10;}
	.st12{fill:none;stroke:#FFFFFF;stroke-width:1.2619;stroke-miterlimit:10;}
	.st13{fill:#FFFFFF;}
	.st14{fill:none;stroke:#1ED5A7;stroke-width:2;stroke-miterlimit:10;}
	.st15{fill:none;stroke:#1ED5A7;stroke-width:0.8205;stroke-miterlimit:10;}
	.st16{fill:none;stroke:#1B1E28;stroke-width:0.8971;stroke-miterlimit:10;}
	.st17{fill:none;stroke:#1B1E28;stroke-width:0.6728;stroke-miterlimit:10;}
	.st18{fill:none;stroke:#0D9B76;stroke-width:0.8205;stroke-miterlimit:10;}
	.st19{fill:none;stroke:#5A7CD9;stroke-width:2;stroke-miterlimit:10;}
	.st20{fill:none;stroke:#5A7CD9;stroke-width:0.8205;stroke-miterlimit:10;}
	.st21{fill:none;stroke:#C2CECE;stroke-miterlimit:10;}
	.st22{fill:none;stroke:#D7DDDD;stroke-miterlimit:10;}
	.st23{fill:#FFFFFF;stroke:#C2CECE;stroke-width:1.1824;stroke-miterlimit:10;}
	.st24{fill:#FFFFFF;stroke:#C2CECE;stroke-miterlimit:10;}
	.st25{fill:none;stroke:#C2CECE;stroke-linecap:round;stroke-miterlimit:10;}
	.st26{fill:#C2CECE;}
	.st27{fill:#5A7CD9;}
	.st28{fill:#0D9B76;}
	.st29{fill:#1ED5A7;}
	.st30{display:none;fill:#FFFFFF;}
	.st31{fill:#FFFFFF;stroke:#FFFFFF;stroke-width:0.143;stroke-miterlimit:10;}
	.st32{fill:#FFFFFF;stroke:#FFFFFF;stroke-width:0.2356;stroke-miterlimit:10;}
	.st33{enable-background:new    ;}
</style>
<path class="st0" d="M333.7,111c-3.9,8.4-13.9,12.5-5.4,45c1.7,6.6,0.9,13.5-2.3,19.5c-10.4,19.5-32.8,25.8-47.4,30.5
	c-17.1,4.9-38.3,1.8-52.9,6.2s-50.5,20.8-71.4,5.2C131,200,136.1,136.1,144,125.5s-41.4-58.7-34-75c9.5-22.8,43.2-2.2,59.1-30.3
	c17.3-31.3,33.5-14.4,58.2-11.4c30.8,3.7,84.3-16.6,109.2,14.7S349.5,76.6,333.7,111z"/>
<path class="st1" d="M78.5,186.5c20.2,0,16,0,32.5,0c46.7,0,54.5,1.3,70.2-14.5"/>
<line class="st2" x1="388.8" y1="113.8" x2="276" y2="113.8"/>
<path class="st3" d="M276,114.5c47.5,2.5,43.5-4.1,43.5,24.5c0,16,21,20,69.5,21.5"/>
<path class="st4" d="M276,113c47.5-2.5,43.5,4.1,43.5-24.5c0-16,21-20,69.5-21.5"/>
<linearGradient id="SVGID_1_" gradientUnits="userSpaceOnUse" x1="190.1564" y1="-13.0037" x2="269.8436" y2="33.0037" gradientTransform="matrix(1 0 0 1 0 104)">
	<stop  offset="0" style="stop-color:#0D9B76"/>
	<stop  offset="0.1047" style="stop-color:#1F948D"/>
	<stop  offset="0.3206" style="stop-color:#3F87B6"/>
	<stop  offset="0.4907" style="stop-color:#537FD0"/>
	<stop  offset="0.5928" style="stop-color:#5A7CD9"/>
	<stop  offset="0.8652" style="stop-color:#30BBB6"/>
	<stop  offset="1" style="stop-color:#1ED5A7"/>
</linearGradient>
<circle class="st5" cx="230" cy="114" r="44.5"/>
<g id="Inner_cirlce_edges" class="st6">
	<rect x="403" y="271.8" class="st7" width="10.1" height="3.7"/>
	<rect x="403" y="357.7" class="st7" width="10.1" height="5.5"/>
	<rect x="362" y="315.9" class="st7" width="5.5" height="4.1"/>
	<rect x="449.2" y="315.9" class="st7" width="5.5" height="4.1"/>
	
		<rect x="374.5" y="285.1" transform="matrix(0.7071 -0.7071 0.7071 0.7071 -92.2871 351.0791)" class="st7" width="6.3" height="3.7"/>
	
		<rect x="436.9" y="283.8" transform="matrix(0.7071 -0.7071 0.7071 0.7071 -74.411 394.2883)" class="st7" width="3.7" height="6.3"/>
	
		<rect x="375.8" y="344.8" transform="matrix(0.7071 -0.7071 0.7071 0.7071 -135.419 368.9491)" class="st7" width="3.7" height="6.3"/>
	
		<rect x="436.7" y="346.4" transform="matrix(0.7071 -0.7071 0.7071 0.7071 -117.6957 412.335)" class="st7" width="4.4" height="3.7"/>
</g>
<g id="Inner_cirlce_edges_1_" class="st6">
	<rect x="120" y="210.8" class="st7" width="10.1" height="3.7"/>
	<rect x="120" y="296.7" class="st7" width="10.1" height="5.5"/>
	<rect x="79" y="254.9" class="st7" width="5.5" height="4.1"/>
	<rect x="166.2" y="254.9" class="st7" width="5.5" height="4.1"/>
	
		<rect x="91.5" y="224.1" transform="matrix(0.7071 -0.7071 0.7071 0.7071 -132.0427 133.1035)" class="st7" width="6.3" height="3.7"/>
	
		<rect x="153.9" y="222.8" transform="matrix(0.7071 -0.7071 0.7071 0.7071 -114.1667 176.3128)" class="st7" width="3.7" height="6.3"/>
	
		<rect x="92.8" y="283.8" transform="matrix(0.7071 -0.7071 0.7071 0.7071 -175.1746 150.9736)" class="st7" width="3.7" height="6.3"/>
	
		<rect x="153.7" y="285.4" transform="matrix(0.7071 -0.7071 0.7071 0.7071 -157.4513 194.3595)" class="st7" width="4.4" height="3.7"/>
</g>
<path class="st8" d="M-13.5-37.5"/>
<g id="Inner_cirlce_edges_2_" class="st6">
	<rect x="723" y="-42.2" class="st7" width="10.1" height="3.7"/>
	<rect x="723" y="43.7" class="st7" width="10.1" height="5.5"/>
	<rect x="682" y="1.9" class="st7" width="5.5" height="4.1"/>
	<rect x="769.2" y="1.9" class="st7" width="5.5" height="4.1"/>
	
		<rect x="694.5" y="-28.9" transform="matrix(0.7071 -0.7071 0.7071 0.7071 223.4676 485.3824)" class="st7" width="6.3" height="3.7"/>
	
		<rect x="756.9" y="-30.2" transform="matrix(0.7071 -0.7071 0.7071 0.7071 241.3437 528.5917)" class="st7" width="3.7" height="6.3"/>
	
		<rect x="695.8" y="30.8" transform="matrix(0.7071 -0.7071 0.7071 0.7071 180.3358 503.2524)" class="st7" width="3.7" height="6.3"/>
	
		<rect x="756.7" y="32.4" transform="matrix(0.7071 -0.7071 0.7071 0.7071 198.059 546.6384)" class="st7" width="4.4" height="3.7"/>
</g>
<g>
	<rect x="330.4" y="49.5" class="st9" width="45.9" height="129.7"/>
	<ellipse class="st10" cx="353.4" cy="49.5" rx="23" ry="5.1"/>
	<ellipse class="st9" cx="353.4" cy="179.1" rx="23" ry="5.1"/>
</g>
<g id="Kafka_logo_2_">
	<circle class="st11" cx="349" cy="113.6" r="3.6"/>
	<circle class="st11" cx="349" cy="124.6" r="2.9"/>
	<circle class="st11" cx="349" cy="102.7" r="2.9"/>
	<circle class="st11" cx="358.5" cy="108.4" r="2.9"/>
	<circle class="st11" cx="358.5" cy="118.9" r="2.9"/>
	<line class="st12" x1="349" y1="105.5" x2="349" y2="110.4"/>
	<line class="st12" x1="349" y1="116.9" x2="349" y2="122.5"/>
	<line class="st12" x1="355.7" y1="110.4" x2="352.8" y2="112.5"/>
	<line class="st12" x1="356.5" y1="117.7" x2="352.5" y2="115.3"/>
</g>
<g>
	<g>
		<g>
			<path class="st13" d="M343,137.1l2.2,3.1h-0.9l-1.7-2.6l-0.9,1v1.6H341V133h0.7v4.6l2.4-2.6h1L343,137.1z"/>
			<path class="st13" d="M345.3,140.3h-1.1l0,0l-1.7-2.5l-0.8,0.9v1.7h-0.9V133h0.9v4.5l2.3-2.4h1.3l-2.1,2.1L345.3,140.3z
				 M344.2,140.1h0.7l-2.1-3V137l1.9-1.9H344l-2.5,2.7v-4.7h-0.6v7h0.6v-1.6l0,0l1-1l0.1,0.1L344.2,140.1z"/>
		</g>
		<g>
			<path class="st13" d="M349.7,135.9v-0.8h0.7v5.1h-0.7v-0.8c-0.4,0.6-1,0.9-1.8,0.9c-1.5,0-2.4-1.2-2.4-2.7s1-2.7,2.4-2.7
				C348.7,135,349.3,135.4,349.7,135.9z M349.7,137.7c0-1.1-0.6-2-1.7-2s-1.8,0.9-1.8,2s0.7,2,1.8,2
				C349.1,139.6,349.7,138.7,349.7,137.7z"/>
			<path class="st13" d="M347.9,140.4c-1.4,0-2.5-1.2-2.5-2.7s1.1-2.7,2.5-2.7c0.7,0,1.3,0.3,1.7,0.7V135h0.9v5.3h-0.9v-0.7
				C349.2,140.1,348.6,140.4,347.9,140.4z M347.9,135.1c-1.3,0-2.3,1.1-2.3,2.6s1,2.6,2.3,2.6c0.8,0,1.3-0.3,1.7-0.9l0.2-0.2v1h0.6
				v-5h-0.6v1l-0.2-0.2C349.2,135.4,348.6,135.1,347.9,135.1z M348,139.7c-1.1,0-1.9-0.8-1.9-2s0.8-2,1.9-2s1.8,0.8,1.8,2
				S349,139.7,348,139.7z M348,135.8c-1,0-1.7,0.8-1.7,1.9s0.7,1.9,1.7,1.9c1.1,0,1.6-0.9,1.6-1.9S349.1,135.8,348,135.8z"/>
		</g>
		<g>
			<path class="st13" d="M353.8,133.7c-0.7,0-1.1,0.3-1.1,1v0.4h1.2v0.7h-1.2v4.5H352v-4.5h-0.9v-0.7h0.9v-0.5
				c0-1.1,0.7-1.7,1.8-1.7h0.1L353.8,133.7L353.8,133.7z"/>
			<path class="st13" d="M352.9,140.3H352v-4.5h-0.9V135h0.9v-0.4c0-1.1,0.7-1.8,1.9-1.8h0.1v0.9h-0.2c-0.7,0-1,0.3-1,0.9v0.3h1.2
				v0.9h-1.2v4.5L352.9,140.3L352.9,140.3z M352.1,140.1h0.6v-4.5h1.2v-0.5h-1.2v-0.5c0-0.7,0.4-1.1,1.1-1.1l0,0V133
				c-1.1,0-1.7,0.6-1.7,1.6v0.5h-0.9v0.5h0.9V140.1z"/>
		</g>
		<g>
			<path class="st13" d="M357,137.1l2.2,3.1h-0.9l-1.7-2.6l-0.9,1v1.6H355V133h0.7v4.6l2.4-2.6h1L357,137.1z"/>
			<path class="st13" d="M359.3,140.3h-1.1l0,0l-1.7-2.5l-0.8,0.9v1.7h-0.9V133h0.9v4.5l2.3-2.4h1.3l-2.1,2.1L359.3,140.3z
				 M358.2,140.1h0.7l-2.1-3V137l1.9-1.9H358l-2.5,2.7v-4.7h-0.6v7h0.6v-1.6l0,0l1-1l0.1,0.1L358.2,140.1z"/>
		</g>
		<g>
			<path class="st13" d="M363.7,135.9v-0.8h0.7v5.1h-0.7v-0.8c-0.4,0.6-1,0.9-1.8,0.9c-1.5,0-2.4-1.2-2.4-2.7s1-2.7,2.4-2.7
				C362.7,135,363.3,135.4,363.7,135.9z M363.7,137.7c0-1.1-0.6-2-1.7-2s-1.8,0.9-1.8,2s0.7,2,1.8,2
				C363.1,139.6,363.7,138.7,363.7,137.7z"/>
			<path class="st13" d="M361.9,140.4c-1.4,0-2.5-1.2-2.5-2.7s1.1-2.7,2.5-2.7c0.7,0,1.3,0.3,1.7,0.7V135h0.9v5.3h-0.9v-0.7
				C363.2,140.1,362.6,140.4,361.9,140.4z M361.9,135.1c-1.3,0-2.3,1.1-2.3,2.6s1,2.6,2.3,2.6c0.8,0,1.3-0.3,1.7-0.9l0.2-0.2v1h0.6
				v-5h-0.6v1l-0.2-0.2C363.2,135.4,362.6,135.1,361.9,135.1z M362,139.7c-1.1,0-1.9-0.8-1.9-2s0.8-2,1.9-2s1.8,0.8,1.8,2
				S363,139.7,362,139.7z M362,135.8c-1,0-1.7,0.8-1.7,1.9s0.7,1.9,1.7,1.9c1.1,0,1.6-0.9,1.6-1.9S363.1,135.8,362,135.8z"/>
		</g>
	</g>
</g>
<g>
	<rect x="389.1" y="52.9" class="st14" width="52.9" height="27.6"/>
	<line class="st15" x1="406.7" y1="55.6" x2="406.7" y2="77.8"/>
	<g id="Kafka_logo_4_">
		<circle class="st16" cx="395.6" cy="66.7" r="1.9"/>
		<circle class="st16" cx="395.6" cy="72.5" r="1.5"/>
		<circle class="st16" cx="395.6" cy="60.9" r="1.5"/>
		<circle class="st16" cx="400.7" cy="63.9" r="1.5"/>
		<circle class="st16" cx="400.7" cy="69.5" r="1.5"/>
		<line class="st17" x1="395.6" y1="62.4" x2="395.6" y2="65"/>
		<line class="st17" x1="395.6" y1="68.4" x2="395.6" y2="71.4"/>
		<line class="st17" x1="399.2" y1="65" x2="397.6" y2="66.1"/>
		<line class="st17" x1="399.6" y1="68.9" x2="397.4" y2="67.6"/>
	</g>
	<g>
		<g>
			<g>
				<path class="st9" d="M415.6,66.2H415c0-0.4-0.3-0.6-1-0.6c-0.6,0-0.9,0.2-0.9,0.6c0,1,2.6,0.3,2.6,1.9c0,0.8-0.6,1.2-1.6,1.2
					c-1.1,0-1.7-0.6-1.7-1.4h0.6c0,0.4,0.3,0.8,1.1,0.8c0.3,0,1-0.1,1-0.6c0-1-2.6-0.4-2.6-1.9c0-0.7,0.5-1.2,1.6-1.2
					C415,65.1,415.5,65.6,415.6,66.2z"/>
				<path class="st9" d="M414.1,69.4c-1.2,0-1.8-0.7-1.8-1.5v-0.1h0.8v0.1c0,0.2,0.2,0.7,1,0.7c0.2,0,0.9,0,0.9-0.5
					c0-0.4-0.4-0.5-1.1-0.6c-0.7-0.2-1.6-0.4-1.6-1.3c0-0.8,0.6-1.3,1.7-1.3c0.9,0,1.6,0.5,1.7,1.3v0.1h-0.8v-0.1
					c0-0.4-0.3-0.6-0.9-0.6c-0.8,0-0.8,0.3-0.8,0.5c0,0.3,0.4,0.4,1,0.6c0.7,0.2,1.6,0.4,1.6,1.3C415.8,68.9,415.1,69.4,414.1,69.4z
					 M412.5,68.1c0.1,0.6,0.5,1.1,1.6,1.1c1,0,1.5-0.4,1.5-1.1c0-0.8-0.7-0.9-1.5-1.1c-0.6-0.1-1.2-0.3-1.2-0.8s0.4-0.7,1-0.7
					c0.7,0,1,0.3,1.1,0.6h0.4c-0.1-0.4-0.4-1-1.4-1c-0.7,0-1.5,0.2-1.5,1.1c0,0.7,0.7,0.9,1.4,1.1c0.6,0.1,1.2,0.3,1.2,0.8
					c0,0.6-0.6,0.8-1.1,0.8c-0.9,0-1.1-0.6-1.2-0.8H412.5z"/>
			</g>
			<g>
				<path class="st9" d="M419.4,68.1h0.7c-0.3,0.7-0.9,1.2-1.8,1.2c-1.2,0-2-0.9-2-2.1s0.8-2.1,2-2.1s2,0.9,2,2.1v0.2H417
					c0.1,0.7,0.6,1.3,1.4,1.3C418.8,68.7,419.1,68.5,419.4,68.1z M416.8,66.9h2.7c-0.1-0.7-0.6-1.2-1.3-1.2S416.9,66.2,416.8,66.9z"
					/>
				<path class="st9" d="M418.2,69.4c-1.2,0-2.1-0.9-2.1-2.2c0-1.3,0.9-2.2,2.1-2.2s2.1,0.9,2.1,2.2v0.3H417
					c0.1,0.7,0.6,1.1,1.3,1.1c0.6,0,0.9-0.3,1.1-0.6v-0.1h0.9l-0.1,0.1C419.8,68.9,419.1,69.4,418.2,69.4z M418.2,65.2
					c-1.1,0-1.9,0.8-1.9,2s0.8,2,1.9,2c1,0,1.4-0.5,1.7-1h-0.4c-0.3,0.4-0.7,0.7-1.2,0.7c-0.8,0-1.4-0.6-1.5-1.4v-0.1h3.3v-0.1
					C420,66,419.3,65.2,418.2,65.2z M419.6,67h-2.9v-0.1c0.1-0.8,0.7-1.3,1.5-1.3s1.3,0.5,1.5,1.3L419.6,67z M416.9,66.8h2.4
					c-0.1-0.6-0.6-1-1.2-1C417.5,65.7,417.1,66.1,416.9,66.8z"/>
			</g>
			<g>
				<path class="st9" d="M423,65.1v0.6h-0.1c-0.9,0-1.4,0.8-1.4,1.7v1.8h-0.6v-4.1h0.6v1C421.5,65.9,421.9,65.1,423,65.1L423,65.1z"
					/>
				<path class="st9" d="M421.6,69.3h-0.8V65h0.8v0.7c0.2-0.4,0.7-0.7,1.4-0.7h0.1v0.8h-0.2c-0.9,0-1.3,0.8-1.3,1.6V69.3z M421,69.1
					h0.4v-1.7c0-0.9,0.5-1.8,1.5-1.9v-0.4c-1,0-1.3,1-1.3,1l-0.2,0.7v-1.6H421V69.1z"/>
			</g>
			<g>
				<path class="st9" d="M426.9,65.1l-1.5,4.1h-0.7l-1.6-4.1h0.7l1.3,3.4l1.2-3.4H426.9z"/>
				<path class="st9" d="M425.5,69.3h-0.8v-0.1L423,65h0.9l1.2,3.2l1.2-3.2h0.9L425.5,69.3z M424.8,69.1h0.6l1.5-3.9h-0.4l-1.3,3.6
					l-1.3-3.6h-0.4L424.8,69.1z"/>
			</g>
			<g>
				<path class="st9" d="M428.1,63.6v0.8h-0.6v-0.8C427.5,63.6,428.1,63.6,428.1,63.6z M427.5,65.1h0.6v4.1h-0.6V65.1z"/>
				<path class="st9" d="M428.2,69.3h-0.8V65h0.8V69.3z M427.6,69.1h0.4v-3.9h-0.4V69.1z M428.2,64.5h-0.8v-1h0.8V64.5z M427.6,64.3
					h0.4v-0.6h-0.4V64.3z"/>
			</g>
			<g>
				<path class="st9" d="M432.1,68h0.6c-0.2,0.8-0.9,1.4-1.9,1.4c-1.2,0-2-0.9-2-2.1s0.8-2.1,2-2.1c0.9,0,1.6,0.6,1.9,1.4h-0.6
					c-0.2-0.5-0.6-0.8-1.2-0.8c-0.9,0-1.4,0.7-1.4,1.6s0.6,1.6,1.4,1.6C431.5,68.7,431.9,68.4,432.1,68z"/>
				<path class="st9" d="M430.8,69.4c-1.2,0-2.1-0.9-2.1-2.2s0.9-2.2,2.1-2.2c0.9,0,1.7,0.6,2,1.4v0.1H432v-0.1
					c-0.2-0.5-0.6-0.7-1.1-0.7c-0.9,0-1.3,0.7-1.3,1.5s0.5,1.5,1.3,1.5c0.5,0,0.9-0.3,1.1-0.7v-0.1h0.9V68
					C432.5,68.8,431.8,69.4,430.8,69.4z M430.8,65.2c-1.1,0-1.8,0.8-1.8,2s0.8,2,1.8,2c0.8,0,1.5-0.4,1.7-1.1h-0.4
					c-0.2,0.5-0.7,0.8-1.2,0.8c-0.9,0-1.5-0.7-1.5-1.7s0.6-1.7,1.5-1.7c0.5,0,1,0.3,1.2,0.8h0.4C432.3,65.6,431.6,65.2,430.8,65.2z"
					/>
			</g>
			<g>
				<path class="st9" d="M436.4,68.1h0.7c-0.3,0.7-0.9,1.2-1.8,1.2c-1.2,0-2-0.9-2-2.1s0.8-2.1,2-2.1s2,0.9,2,2.1v0.2H434
					c0.1,0.7,0.6,1.3,1.4,1.3C435.8,68.7,436.1,68.5,436.4,68.1z M433.8,66.9h2.7c-0.1-0.7-0.6-1.2-1.3-1.2S433.9,66.2,433.8,66.9z"
					/>
				<path class="st9" d="M435.2,69.4c-1.2,0-2.1-0.9-2.1-2.2c0-1.3,0.9-2.2,2.1-2.2s2.1,0.9,2.1,2.2v0.3H434
					c0.1,0.7,0.6,1.1,1.3,1.1c0.6,0,0.9-0.3,1.1-0.6v-0.1h0.9l-0.1,0.1C436.8,68.9,436.1,69.4,435.2,69.4z M435.2,65.2
					c-1.1,0-1.9,0.8-1.9,2s0.8,2,1.9,2c1,0,1.4-0.5,1.7-1h-0.4c-0.3,0.4-0.7,0.7-1.2,0.7c-0.8,0-1.4-0.6-1.5-1.4v-0.1h3.3v-0.1
					C437,66,436.3,65.2,435.2,65.2z M436.6,67h-2.9v-0.1c0.1-0.8,0.7-1.3,1.5-1.3s1.3,0.5,1.5,1.3L436.6,67z M433.9,66.8h2.4
					c-0.1-0.6-0.6-1-1.2-1C434.5,65.7,434.1,66.1,433.9,66.8z"/>
			</g>
		</g>
	</g>
</g>
<g>
	<rect x="389.1" y="100.2" class="st2" width="52.9" height="27.6"/>
	<line class="st18" x1="406.7" y1="103.4" x2="406.7" y2="125.5"/>
	<g id="Kafka_logo_5_">
		<circle class="st16" cx="395.6" cy="114.4" r="1.9"/>
		<circle class="st16" cx="395.6" cy="120.3" r="1.5"/>
		<circle class="st16" cx="395.6" cy="108.6" r="1.5"/>
		<circle class="st16" cx="400.7" cy="111.6" r="1.5"/>
		<circle class="st16" cx="400.7" cy="117.2" r="1.5"/>
		<line class="st17" x1="395.6" y1="110.1" x2="395.6" y2="112.7"/>
		<line class="st17" x1="395.6" y1="116.2" x2="395.6" y2="119.2"/>
		<line class="st17" x1="399.2" y1="112.7" x2="397.6" y2="113.8"/>
		<line class="st17" x1="399.6" y1="116.6" x2="397.4" y2="115.3"/>
	</g>
	<g>
		<g>
			<g>
				<path class="st9" d="M415.6,114H415c0-0.4-0.3-0.6-1-0.6c-0.6,0-0.9,0.2-0.9,0.6c0,1,2.6,0.3,2.6,1.9c0,0.8-0.6,1.2-1.6,1.2
					c-1.1,0-1.7-0.6-1.7-1.4h0.6c0,0.4,0.3,0.8,1.1,0.8c0.3,0,1-0.1,1-0.6c0-1-2.6-0.4-2.6-1.9c0-0.7,0.5-1.2,1.6-1.2
					C415,112.8,415.5,113.4,415.6,114z"/>
				<path class="st9" d="M414.1,117.2c-1.2,0-1.8-0.7-1.8-1.5v-0.1h0.8v0.1c0,0.2,0.2,0.7,1,0.7c0.2,0,0.9,0,0.9-0.5
					c0-0.4-0.4-0.5-1.1-0.6c-0.7-0.2-1.6-0.4-1.6-1.3c0-0.8,0.6-1.3,1.7-1.3c0.9,0,1.6,0.5,1.7,1.3v0.1h-0.8V114
					c0-0.4-0.3-0.6-0.9-0.6c-0.8,0-0.8,0.3-0.8,0.5c0,0.3,0.4,0.4,1,0.6c0.7,0.2,1.6,0.4,1.6,1.3
					C415.8,116.7,415.1,117.2,414.1,117.2z M412.5,115.8c0.1,0.6,0.5,1.1,1.6,1.1c1,0,1.5-0.4,1.5-1.1c0-0.8-0.7-0.9-1.5-1.1
					c-0.6-0.1-1.2-0.3-1.2-0.8s0.4-0.7,1-0.7c0.7,0,1,0.3,1.1,0.6h0.4c-0.1-0.4-0.4-1-1.4-1c-0.7,0-1.5,0.2-1.5,1.1
					c0,0.7,0.7,0.9,1.4,1.1c0.6,0.1,1.2,0.3,1.2,0.8c0,0.6-0.6,0.8-1.1,0.8c-0.9,0-1.1-0.6-1.2-0.8H412.5z"/>
			</g>
			<g>
				<path class="st9" d="M419.4,115.8h0.7c-0.3,0.7-0.9,1.2-1.8,1.2c-1.2,0-2-0.9-2-2.1s0.8-2.1,2-2.1s2,0.9,2,2.1v0.2H417
					c0.1,0.7,0.6,1.3,1.4,1.3C418.8,116.5,419.1,116.2,419.4,115.8z M416.8,114.6h2.7c-0.1-0.7-0.6-1.2-1.3-1.2
					S416.9,113.9,416.8,114.6z"/>
				<path class="st9" d="M418.2,117.2c-1.2,0-2.1-0.9-2.1-2.2c0-1.3,0.9-2.2,2.1-2.2s2.1,0.9,2.1,2.2v0.3H417
					c0.1,0.7,0.6,1.1,1.3,1.1c0.6,0,0.9-0.3,1.1-0.6v-0.1h0.9l-0.1,0.1C419.8,116.7,419.1,117.2,418.2,117.2z M418.2,112.9
					c-1.1,0-1.9,0.8-1.9,2s0.8,2,1.9,2c1,0,1.4-0.5,1.7-1h-0.4c-0.3,0.4-0.7,0.7-1.2,0.7c-0.8,0-1.4-0.6-1.5-1.4v-0.1h3.3V115
					C420,113.7,419.3,112.9,418.2,112.9z M419.6,114.7h-2.9v-0.1c0.1-0.8,0.7-1.3,1.5-1.3s1.3,0.5,1.5,1.3L419.6,114.7z
					 M416.9,114.5h2.4c-0.1-0.6-0.6-1-1.2-1C417.5,113.5,417.1,113.9,416.9,114.5z"/>
			</g>
			<g>
				<path class="st9" d="M423,112.8v0.6h-0.1c-0.9,0-1.4,0.8-1.4,1.7v1.8h-0.6v-4.1h0.6v1C421.5,113.6,421.9,112.8,423,112.8
					L423,112.8z"/>
				<path class="st9" d="M421.6,117.1h-0.8v-4.3h0.8v0.7c0.2-0.4,0.7-0.7,1.4-0.7h0.1v0.8h-0.2c-0.9,0-1.3,0.8-1.3,1.6V117.1z
					 M421,116.9h0.4v-1.7c0-0.9,0.5-1.8,1.5-1.9v-0.4c-1,0-1.3,1-1.3,1l-0.2,0.7V113H421V116.9z"/>
			</g>
			<g>
				<path class="st9" d="M426.9,112.9l-1.5,4.1h-0.7l-1.6-4.1h0.7l1.3,3.4l1.2-3.4H426.9z"/>
				<path class="st9" d="M425.5,117.1h-0.8V117l-1.6-4.2h0.9l1.2,3.2l1.2-3.2h0.9L425.5,117.1z M424.8,116.9h0.6l1.5-3.9h-0.4
					l-1.3,3.6l-1.3-3.6h-0.4L424.8,116.9z"/>
			</g>
			<g>
				<path class="st9" d="M428.1,111.4v0.8h-0.6v-0.8H428.1z M427.5,112.9h0.6v4.1h-0.6V112.9z"/>
				<path class="st9" d="M428.2,117.1h-0.8v-4.3h0.8V117.1z M427.6,116.9h0.4V113h-0.4V116.9z M428.2,112.3h-0.8v-1h0.8V112.3z
					 M427.6,112.1h0.4v-0.6h-0.4V112.1z"/>
			</g>
			<g>
				<path class="st9" d="M432.1,115.7h0.6c-0.2,0.8-0.9,1.4-1.9,1.4c-1.2,0-2-0.9-2-2.1s0.8-2.1,2-2.1c0.9,0,1.6,0.6,1.9,1.4h-0.6
					c-0.2-0.5-0.6-0.8-1.2-0.8c-0.9,0-1.4,0.7-1.4,1.6c0,0.8,0.6,1.6,1.4,1.6C431.5,116.5,431.9,116.2,432.1,115.7z"/>
				<path class="st9" d="M430.8,117.2c-1.2,0-2.1-0.9-2.1-2.2c0-1.3,0.9-2.2,2.1-2.2c0.9,0,1.7,0.6,2,1.4v0.1H432v-0.1
					c-0.2-0.5-0.6-0.7-1.1-0.7c-0.9,0-1.3,0.7-1.3,1.5c0,0.7,0.5,1.5,1.3,1.5c0.5,0,0.9-0.3,1.1-0.7v-0.1h0.9v0.1
					C432.5,116.6,431.8,117.2,430.8,117.2z M430.8,112.9c-1.1,0-1.8,0.8-1.8,2s0.8,2,1.8,2c0.8,0,1.5-0.4,1.7-1.1h-0.4
					c-0.2,0.5-0.7,0.8-1.2,0.8c-0.9,0-1.5-0.7-1.5-1.7s0.6-1.7,1.5-1.7c0.5,0,1,0.3,1.2,0.8h0.4
					C432.3,113.4,431.6,112.9,430.8,112.9z"/>
			</g>
			<g>
				<path class="st9" d="M436.4,115.8h0.7c-0.3,0.7-0.9,1.2-1.8,1.2c-1.2,0-2-0.9-2-2.1s0.8-2.1,2-2.1s2,0.9,2,2.1v0.2H434
					c0.1,0.7,0.6,1.3,1.4,1.3C435.8,116.5,436.1,116.2,436.4,115.8z M433.8,114.6h2.7c-0.1-0.7-0.6-1.2-1.3-1.2
					S433.9,113.9,433.8,114.6z"/>
				<path class="st9" d="M435.2,117.2c-1.2,0-2.1-0.9-2.1-2.2c0-1.3,0.9-2.2,2.1-2.2s2.1,0.9,2.1,2.2v0.3H434
					c0.1,0.7,0.6,1.1,1.3,1.1c0.6,0,0.9-0.3,1.1-0.6v-0.1h0.9l-0.1,0.1C436.8,116.7,436.1,117.2,435.2,117.2z M435.2,112.9
					c-1.1,0-1.9,0.8-1.9,2s0.8,2,1.9,2c1,0,1.4-0.5,1.7-1h-0.4c-0.3,0.4-0.7,0.7-1.2,0.7c-0.8,0-1.4-0.6-1.5-1.4v-0.1h3.3V115
					C437,113.7,436.3,112.9,435.2,112.9z M436.6,114.7h-2.9v-0.1c0.1-0.8,0.7-1.3,1.5-1.3s1.3,0.5,1.5,1.3L436.6,114.7z
					 M433.9,114.5h2.4c-0.1-0.6-0.6-1-1.2-1C434.5,113.5,434.1,113.9,433.9,114.5z"/>
			</g>
		</g>
	</g>
</g>
<g>
	<rect x="389.1" y="147.3" class="st19" width="52.9" height="27.6"/>
	<line class="st20" x1="406.7" y1="150" x2="406.7" y2="172.1"/>
	<g id="Kafka_logo_6_">
		<circle class="st16" cx="395.6" cy="161.1" r="1.9"/>
		<circle class="st16" cx="395.6" cy="166.9" r="1.5"/>
		<circle class="st16" cx="395.6" cy="155.2" r="1.5"/>
		<circle class="st16" cx="400.7" cy="158.3" r="1.5"/>
		<circle class="st16" cx="400.7" cy="163.9" r="1.5"/>
		<line class="st17" x1="395.6" y1="156.7" x2="395.6" y2="159.3"/>
		<line class="st17" x1="395.6" y1="162.8" x2="395.6" y2="165.8"/>
		<line class="st17" x1="399.2" y1="159.3" x2="397.6" y2="160.4"/>
		<line class="st17" x1="399.6" y1="163.2" x2="397.4" y2="161.9"/>
	</g>
	<g>
		<g>
			<g>
				<path class="st9" d="M415.6,160.6H415c0-0.4-0.3-0.6-1-0.6c-0.6,0-0.9,0.2-0.9,0.6c0,1,2.6,0.3,2.6,1.9c0,0.8-0.6,1.2-1.6,1.2
					c-1.1,0-1.7-0.6-1.7-1.4h0.6c0,0.4,0.3,0.8,1.1,0.8c0.3,0,1-0.1,1-0.6c0-1-2.6-0.4-2.6-1.9c0-0.7,0.5-1.2,1.6-1.2
					C415,159.4,415.5,160,415.6,160.6z"/>
				<path class="st9" d="M414.1,163.8c-1.2,0-1.8-0.7-1.8-1.5v-0.1h0.8v0.1c0,0.2,0.2,0.7,1,0.7c0.2,0,0.9,0,0.9-0.5
					c0-0.4-0.4-0.5-1.1-0.6c-0.7-0.2-1.6-0.4-1.6-1.3c0-0.8,0.6-1.3,1.7-1.3c0.9,0,1.6,0.5,1.7,1.3v0.1h-0.8v-0.1
					c0-0.4-0.3-0.6-0.9-0.6c-0.8,0-0.8,0.3-0.8,0.5c0,0.3,0.4,0.4,1,0.6c0.7,0.2,1.6,0.4,1.6,1.3
					C415.8,163.3,415.1,163.8,414.1,163.8z M412.5,162.4c0.1,0.6,0.5,1.1,1.6,1.1c1,0,1.5-0.4,1.5-1.1c0-0.8-0.7-0.9-1.5-1.1
					c-0.6-0.1-1.2-0.3-1.2-0.8s0.4-0.7,1-0.7c0.7,0,1,0.3,1.1,0.6h0.4c-0.1-0.4-0.4-1-1.4-1c-0.7,0-1.5,0.2-1.5,1.1
					c0,0.7,0.7,0.9,1.4,1.1c0.6,0.1,1.2,0.3,1.2,0.8c0,0.6-0.6,0.8-1.1,0.8c-0.9,0-1.1-0.6-1.2-0.8L412.5,162.4L412.5,162.4z"/>
			</g>
			<g>
				<path class="st9" d="M419.4,162.4h0.7c-0.3,0.7-0.9,1.2-1.8,1.2c-1.2,0-2-0.9-2-2.1c0-1.2,0.8-2.1,2-2.1s2,0.9,2,2.1v0.2H417
					c0.1,0.7,0.6,1.3,1.4,1.3C418.8,163.1,419.1,162.8,419.4,162.4z M416.8,161.2h2.7c-0.1-0.7-0.6-1.2-1.3-1.2
					S416.9,160.5,416.8,161.2z"/>
				<path class="st9" d="M418.2,163.8c-1.2,0-2.1-0.9-2.1-2.2s0.9-2.2,2.1-2.2s2.1,0.9,2.1,2.2v0.3H417c0.1,0.7,0.6,1.1,1.3,1.1
					c0.6,0,0.9-0.3,1.1-0.6v-0.1h0.9l-0.1,0.1C419.8,163.3,419.1,163.8,418.2,163.8z M418.2,159.5c-1.1,0-1.9,0.8-1.9,2s0.8,2,1.9,2
					c1,0,1.4-0.5,1.7-1h-0.4c-0.3,0.4-0.7,0.7-1.2,0.7c-0.8,0-1.4-0.6-1.5-1.4v-0.1h3.3v-0.1C420,160.4,419.3,159.5,418.2,159.5z
					 M419.6,161.3h-2.9v-0.1c0.1-0.8,0.7-1.3,1.5-1.3s1.3,0.5,1.5,1.3L419.6,161.3z M416.9,161.1h2.4c-0.1-0.6-0.6-1-1.2-1
					C417.5,160.1,417.1,160.5,416.9,161.1z"/>
			</g>
			<g>
				<path class="st9" d="M423,159.4v0.6h-0.1c-0.9,0-1.4,0.8-1.4,1.7v1.8h-0.6v-4.1h0.6v1C421.5,160.2,421.9,159.4,423,159.4
					L423,159.4z"/>
				<path class="st9" d="M421.6,163.7h-0.8v-4.3h0.8v0.7c0.2-0.4,0.7-0.7,1.4-0.7h0.1v0.8h-0.2c-0.9,0-1.3,0.8-1.3,1.6V163.7z
					 M421,163.5h0.4v-1.7c0-0.9,0.5-1.8,1.5-1.9v-0.4c-1,0-1.3,1-1.3,1l-0.2,0.7v-1.6H421V163.5z"/>
			</g>
			<g>
				<path class="st9" d="M426.9,159.5l-1.5,4.1h-0.7l-1.6-4.1h0.7l1.3,3.4l1.2-3.4H426.9z"/>
				<path class="st9" d="M425.5,163.7h-0.8v-0.1l-1.6-4.2h0.9l1.2,3.2l1.2-3.2h0.9L425.5,163.7z M424.8,163.5h0.6l1.5-3.9h-0.4
					l-1.3,3.6l-1.3-3.6h-0.4L424.8,163.5z"/>
			</g>
			<g>
				<path class="st9" d="M428.1,158v0.8h-0.6V158H428.1z M427.5,159.5h0.6v4.1h-0.6V159.5z"/>
				<path class="st9" d="M428.2,163.7h-0.8v-4.3h0.8V163.7z M427.6,163.5h0.4v-3.9h-0.4V163.5z M428.2,158.9h-0.8v-1h0.8V158.9z
					 M427.6,158.7h0.4v-0.6h-0.4V158.7z"/>
			</g>
			<g>
				<path class="st9" d="M432.1,162.3h0.6c-0.2,0.8-0.9,1.4-1.9,1.4c-1.2,0-2-0.9-2-2.1c0-1.2,0.8-2.1,2-2.1c0.9,0,1.6,0.6,1.9,1.4
					h-0.6c-0.2-0.5-0.6-0.8-1.2-0.8c-0.9,0-1.4,0.7-1.4,1.6c0,0.8,0.6,1.6,1.4,1.6C431.5,163.1,431.9,162.8,432.1,162.3z"/>
				<path class="st9" d="M430.8,163.8c-1.2,0-2.1-0.9-2.1-2.2s0.9-2.2,2.1-2.2c0.9,0,1.7,0.6,2,1.4v0.1H432v-0.1
					c-0.2-0.5-0.6-0.7-1.1-0.7c-0.9,0-1.3,0.7-1.3,1.5c0,0.7,0.5,1.5,1.3,1.5c0.5,0,0.9-0.3,1.1-0.7v-0.1h0.9v0.1
					C432.5,163.2,431.8,163.8,430.8,163.8z M430.8,159.5c-1.1,0-1.8,0.8-1.8,2s0.8,2,1.8,2c0.8,0,1.5-0.4,1.7-1.1h-0.4
					c-0.2,0.5-0.7,0.8-1.2,0.8c-0.9,0-1.5-0.7-1.5-1.7s0.6-1.7,1.5-1.7c0.5,0,1,0.3,1.2,0.8h0.4C432.3,160,431.6,159.5,430.8,159.5z
					"/>
			</g>
			<g>
				<path class="st9" d="M436.4,162.4h0.7c-0.3,0.7-0.9,1.2-1.8,1.2c-1.2,0-2-0.9-2-2.1c0-1.2,0.8-2.1,2-2.1s2,0.9,2,2.1v0.2H434
					c0.1,0.7,0.6,1.3,1.4,1.3C435.8,163.1,436.1,162.8,436.4,162.4z M433.8,161.2h2.7c-0.1-0.7-0.6-1.2-1.3-1.2
					S433.9,160.5,433.8,161.2z"/>
				<path class="st9" d="M435.2,163.8c-1.2,0-2.1-0.9-2.1-2.2s0.9-2.2,2.1-2.2s2.1,0.9,2.1,2.2v0.3H434c0.1,0.7,0.6,1.1,1.3,1.1
					c0.6,0,0.9-0.3,1.1-0.6v-0.1h0.9l-0.1,0.1C436.8,163.3,436.1,163.8,435.2,163.8z M435.2,159.5c-1.1,0-1.9,0.8-1.9,2s0.8,2,1.9,2
					c1,0,1.4-0.5,1.7-1h-0.4c-0.3,0.4-0.7,0.7-1.2,0.7c-0.8,0-1.4-0.6-1.5-1.4v-0.1h3.3v-0.1C437,160.4,436.3,159.5,435.2,159.5z
					 M436.6,161.3h-2.9v-0.1c0.1-0.8,0.7-1.3,1.5-1.3s1.3,0.5,1.5,1.3L436.6,161.3z M433.9,161.1h2.4c-0.1-0.6-0.6-1-1.2-1
					C434.5,160.1,434.1,160.5,433.9,161.1z"/>
			</g>
		</g>
	</g>
</g>
<path class="st8" d="M388.2,113.8"/>
<g>
	<g>
		<g>
			<g>
				<polygon class="st9" points="203.3,120.5 203.3,117.7 215.2,104.3 203.5,104.3 203.5,101 220.1,101 220.1,104 208.2,117.3 
					220.1,117.3 220.1,120.5 				"/>
			</g>
			<g>
				<path class="st9" d="M222.1,120.5v-15.1h3.6v15.1H222.1z M222.1,104.5V101h3.7v3.4L222.1,104.5L222.1,104.5z"/>
			</g>
			<g>
				<rect x="228.8" y="100" class="st9" width="3.6" height="20.5"/>
			</g>
			<g>
				<rect x="235.4" y="100" class="st9" width="3.6" height="20.5"/>
			</g>
			<g>
				<path class="st9" d="M248.9,120.8c-4.5,0-7.8-3.3-7.8-7.8s3.3-7.8,7.8-7.8c1.8,0,3.4,0.5,4.6,1.4v-1.2h3.6v15.1h-3.6v-1.2
					C252.3,120.3,250.7,120.8,248.9,120.8z M249.2,108.5c-2.2,0-4.5,1.4-4.5,4.5s2.3,4.5,4.5,4.5c3,0,4.4-2.3,4.4-4.5
					C253.6,110.8,252.2,108.5,249.2,108.5z"/>
			</g>
		</g>
	</g>
	<polygon class="st9" points="257,125.8 200.6,125.8 203,123.3 259.4,123.3 	"/>
</g>
<g>
	<path class="st21" d="M79.3,129.4H18.8c-0.5,0-1-0.4-1-1V93.1c0-0.5,0.4-1,1-1h60.5c0.5,0,1,0.4,1,1v35.3
		C80.3,129,79.8,129.4,79.3,129.4z"/>
	<path class="st21" d="M80.7,131.7H17.4c-1.1,0-2-0.9-2-2V91.9c0-1.1,0.9-2,2-2h63.3c1.1,0,2,0.9,2,2v37.8
		C82.7,130.8,81.8,131.7,80.7,131.7z"/>
	<path class="st21" d="M83.9,137.8H14.2c-1,0-1.8-0.8-1.8-1.8v-1.7c0-0.5,0.4-1,1-1h71.4c0.5,0,1,0.4,1,1v1.7
		C85.7,137,84.9,137.8,83.9,137.8z"/>
</g>
<g>
	<path class="st22" d="M57.9,52.2H40.1c-1,0-1.8-0.8-1.8-1.8V21.5c0-1,0.8-1.8,1.8-1.8h17.8c1,0,1.8,0.8,1.8,1.8v28.9
		C59.7,51.4,58.9,52.2,57.9,52.2z"/>
	<line class="st22" x1="38.3" y1="24.8" x2="59.8" y2="24.8"/>
	<line class="st22" x1="38.3" y1="46.5" x2="59.8" y2="46.5"/>
	<line class="st22" x1="46.5" y1="49.2" x2="51.5" y2="49.2"/>
</g>
<g>
	<line class="st21" x1="35.6" y1="195.8" x2="44" y2="187.8"/>
	<line class="st21" x1="31.9" y1="180.9" x2="42.6" y2="182.9"/>
	<line class="st21" x1="62.3" y1="181.7" x2="53" y2="183.6"/>
	<line class="st21" x1="59.8" y1="197.5" x2="50.9" y2="188.5"/>
	<path class="st23" d="M49.4,179.5c3.1,0.9,5.3,3.8,5.3,7.2c0,4.2-3.4,7.5-7.5,7.5c-4.2,0-7.5-3.4-7.5-7.5c0-3.8,2.9-7,6.6-7.5"/>
	<circle class="st13" cx="47.9" cy="177.6" r="3.7"/>
	<circle class="st21" cx="33.4" cy="198.9" r="4"/>
	<circle class="st21" cx="61.5" cy="199.6" r="2.8"/>
	<circle class="st24" cx="66.3" cy="181.3" r="4.6"/>
	<circle class="st21" cx="29.6" cy="180.8" r="2.4"/>
	<path class="st25" d="M43.2,173c1.3-1.2,3-2,4.9-2s3.6,0.8,4.9,2"/>
	<circle class="st25" cx="48" cy="177.3" r="2.2"/>
	<path class="st25" d="M40.5,169.8c2-1.8,4.6-2.9,7.5-2.9s5.5,1.1,7.5,2.9"/>
	<path class="st25" d="M37.7,166.6c2.7-2.4,6.3-3.9,10.3-3.9s7.6,1.5,10.3,3.9"/>
</g>
<g>
	<path class="st26" d="M233.8,189.2c-5.1,0.3-10.2,0-15.2-0.8l3.9-25.4c4.9,0.7,9.9,0.7,14.8,0c8.2-1.2,16-4.4,22.5-9.3l15.3,20.6
		c-10,7.4-21.7,12.3-34.1,14.1C238.7,188.8,236.2,189.1,233.8,189.2z"/>
</g>
<g>
	<path class="st26" d="M280.6,169.9l-17.2-19.1c9.9-8.9,15.9-21.6,16.5-34.8l25.6,1.2C304.6,137.3,295.5,156.4,280.6,169.9z"/>
</g>
<g>
	<path class="st26" d="M305.6,110.3l-25.6,1.1v-0.3c-0.1-1.6-0.2-3.2-0.5-4.8c-1.7-11.4-7.3-22-15.9-29.7l17.2-19
		c12.9,11.7,21.5,27.7,24,45c0.4,2.4,0.6,4.8,0.7,7.2L305.6,110.3z"/>
</g>
<g>
	<path class="st26" d="M260,73.7c-10.6-8-24.1-11.4-37.3-9.5c-1.7,0.2-3.4,0.6-5,1l-6.3-24.9c2.5-0.6,5.1-1.1,7.6-1.5
		c2.4-0.4,4.8-0.6,7.2-0.7c17.6-0.9,35.1,4.4,49.2,15.1L260,73.7z"/>
</g>
<line class="st1" x1="154.2" y1="114" x2="87.3" y2="114"/>
<path class="st1" d="M77.5,41.7c20.2,0,16,0,32.5,0c46.7,0,54.5-1.3,70.2,14.5"/>
<g>
	<path class="st9" d="M211.8,187.1c-19.5-4.8-36.5-17.5-46.8-34.7l22-13.1c6.8,11.4,18.1,19.8,30.9,23L211.8,187.1z"/>
	<path class="st27" d="M212.5,188.3l-1-0.2c-19.7-4.9-37-17.7-47.4-35.2l-0.5-0.9l23.8-14.2l0.5,0.9c6.6,11.2,17.7,19.4,30.3,22.5
		l1,0.2L212.5,188.3z M166.4,152.7c10,16.3,26.2,28.3,44.7,33.2l5.7-23c-12.4-3.3-23.3-11.4-30-22.3L166.4,152.7z"/>
</g>
<g>
	<path class="st9" d="M161.7,146.2c-3.2-6.8-5.4-14-6.5-21.5c-0.4-2.4-0.6-4.8-0.7-7.2c-0.5-10.1,1-20,4.4-29.5l24.1,8.7
		c-2.3,6.2-3.2,12.8-2.9,19.4c0.1,1.6,0.2,3.2,0.5,4.8c0.7,5,2.2,9.7,4.3,14.2L161.7,146.2z"/>
	<path class="st28" d="M161.2,147.5l-0.4-0.9c-3.3-6.9-5.5-14.2-6.6-21.8c-0.4-2.4-0.6-4.9-0.7-7.3c-0.5-10.2,1-20.3,4.4-29.9
		l0.3-0.9l26,9.4l-0.3,0.9c-2.2,6.1-3.2,12.5-2.8,19c0.1,1.6,0.2,3.1,0.5,4.7c0.7,4.9,2.1,9.5,4.2,13.9l0.4,0.9L161.2,147.5z
		 M159.4,89.3c-3.1,9.1-4.5,18.5-4,28.2c0.1,2.4,0.4,4.8,0.7,7.1c1,7,3.1,13.9,6,20.3l21.4-10.2c-1.9-4.3-3.3-8.9-4-13.6
		c-0.2-1.6-0.4-3.3-0.5-4.9c-0.3-6.4,0.5-12.8,2.6-18.9L159.4,89.3z"/>
</g>
<g>
	<path class="st9" d="M184.7,92.4l-23.2-10.9c8.5-18.2,24.3-32.5,43.1-39.2l8.6,24.2C200.8,71,190.4,80.4,184.7,92.4z"/>
	<path class="st29" d="M185.2,93.8l-25-11.8l0.4-0.9c8.7-18.4,24.6-32.9,43.7-39.7l0.9-0.3l9.2,26.1l-0.9,0.3
		c-12.2,4.3-22.4,13.6-27.9,25.4L185.2,93.8z M162.9,81l21.4,10.1C190,79.6,200,70.5,212,66l-8-22.4C186.2,50.3,171.2,63.8,162.9,81
		z"/>
</g>
<g>
	<g id="MQTT_logo_1_">
		<path class="st30" d="M200.4,175.7l1-1.2l0,0c-3.2-2.6-3.6-7.3-1-10.4l-1.1-0.9C196.2,167,196.7,172.6,200.4,175.7z M202.4,173.3
			l1-1.2l0,0c-1.8-1.5-2.1-4.2-0.6-6l-1.1-0.9C199.6,167.7,200,171.3,202.4,173.3L202.4,173.3z M196.1,165.7l-1.9,2.3
			c0,0.6,0,1.4,0,2c0.1,0.7,0.2,1.5,0.4,2.1l2.4,2.1C195.5,171.6,195.2,168.5,196.1,165.7z"/>
		<path class="st31" d="M203.4,172.2L203.4,172.2l2.4-2.9c0.2-0.2,0.1-0.5-0.1-0.7l-2.9-2.4C201.3,168,201.6,170.7,203.4,172.2z
			 M201.4,174.5L201.4,174.5l1-1.2c-2.4-2-2.8-5.7-0.8-8.1l-1.3-1.1C197.8,167.3,198.2,172,201.4,174.5z M198.2,163.1l-2.1,2.6
			c-0.9,2.8-0.5,5.9,1,8.5l2.4,2c0.2,0.2,0.5,0.1,0.7-0.1l0.3-0.4c-3.8-3.1-4.3-8.7-1.2-12.5L199,163
			C198.7,162.8,198.4,162.8,198.2,163.1L198.2,163.1z M194.2,170c-0.1-0.6-0.1-1.4,0-2l-1.6,1.8c-0.2,0.2-0.1,0.5,0.1,0.7l0,0
			l1.9,1.6C194.4,171.4,194.2,170.7,194.2,170z"/>
	</g>
	<g>
		<path class="st32" d="M188.3,162.8l2.9-3.5l0.4,0.3l-2.4,2.9l2.6-0.6l-0.1,2.7l2.4-2.9l0.4,0.3l-2.9,3.5l-0.4-0.4l0.2-2.6
			l-2.5,0.7L188.3,162.8z"/>
		<path class="st32" d="M187.4,155.3c0.4,0,0.7,0.1,1.1,0.4c0.5,0.4,0.7,1.1,0.5,1.8c0.9,0.8,0.9,2.1,0.1,3.1
			c-0.8,1-2.2,1.2-3.2,0.4s-1-2.2-0.2-3.2c0.7-0.9,1.9-1.2,2.8-0.6c0.1-0.3,0.1-0.8-0.4-1.1c-0.2-0.2-0.5-0.3-0.8-0.3L187.4,155.3z
			 M186.1,158.1c-0.7,0.8-0.7,1.8,0.1,2.5s1.8,0.5,2.5-0.3s0.7-1.8-0.1-2.5S186.8,157.3,186.1,158.1z"/>
		<path class="st32" d="M181.8,156.8l1.2,1l2.6-3.1l0.4,0.3l-2.6,3.1l1.2,1l-0.3,0.4l-2.7-2.2L181.8,156.8z"/>
		<path class="st32" d="M179,154.5l1.2,1l2.6-3.1l0.4,0.3l-2.6,3.1l1.2,1l-0.3,0.4l-2.7-2.2L179,154.5z"/>
	</g>
</g>
<g>
	<g id="WebSocket_logo_3_">
		<path class="st13" d="M187.4,73.3l1.3-1l-2.4-3.1l-2.6-0.3l-0.2,1.6l1.9,0.2L187.4,73.3L187.4,73.3z M189.2,72.9l-1.9,1.5
			l-2.7,2.1l-1.9-0.2l0.1-0.8l1.6,0.2l1.9-1.5l-3.2-0.4l0.1-0.8l3.2,0.4l-1.4-1.8l-1.6-0.2l0.1-0.8l-4-0.5l-2.3,1.8l0,0l-2.3,1.8
			l2.3,0.3l0,0l0,0l2.7-2.1l1.7,0.2l-0.4,2.5l-1.7-0.2l-0.6-0.7l-1.3,1l1,1.3l4,0.5l-0.2,1.6l2.6,0.3l2.3-1.8l4.2-3.2l0,0
			L189.2,72.9L189.2,72.9z"/>
	</g>
	<g>
		<g>
			<g>
				<path class="st13" d="M193.4,66.6c0.5,0.6,0.2,1.3-0.6,2c-1,0.8-1.7,0.6-2.2,0.1l0.4-0.3c0.4,0.5,1,0.3,1.6-0.2
					c0.6-0.4,0.8-0.9,0.5-1.3c-0.6-0.8-2.6,1.4-3.5,0.2c-0.4-0.5-0.3-1.2,0.5-1.9c0.9-0.7,1.6-0.5,2-0.1l-0.4,0.3
					c-0.3-0.3-0.8-0.3-1.4,0.1c-0.8,0.6-0.6,1-0.4,1.2C190.5,67.6,192.5,65.5,193.4,66.6z"/>
				<path class="st13" d="M191.5,69.3c-0.5,0-0.8-0.2-1-0.5l-0.1-0.1l0.6-0.5l0.1,0.1c0.4,0.5,1.1,0.1,1.4-0.2
					c0.3-0.2,0.4-0.4,0.5-0.6s0-0.4-0.1-0.5c-0.2-0.3-0.7-0.1-1.3,0.2c-0.8,0.3-1.6,0.7-2.1,0c-0.2-0.3-0.3-0.7-0.2-1
					c0.1-0.4,0.4-0.7,0.8-1c1-0.8,1.8-0.5,2.2-0.1l0.1,0.1l-0.6,0.4l-0.1-0.1c-0.3-0.3-0.7-0.2-1.2,0.1c-0.3,0.2-0.5,0.5-0.5,0.7
					c0,0.1,0,0.3,0.1,0.4c0.2,0.3,0.7,0,1.3-0.2c0.7-0.3,1.6-0.7,2.2,0l0,0c0.5,0.7,0.3,1.5-0.6,2.1
					C192.3,69.1,191.9,69.3,191.5,69.3z M190.7,68.7c0.5,0.5,1.2,0.4,2-0.2s1-1.3,0.6-1.8l0,0c-0.4-0.6-1.2-0.2-1.9,0.1
					c-0.6,0.3-1.2,0.6-1.6,0.1c-0.1-0.1-0.2-0.3-0.1-0.6c0.1-0.3,0.3-0.6,0.6-0.8c0.5-0.4,1.1-0.5,1.5-0.2l0.2-0.2
					c-0.4-0.3-1-0.4-1.8,0.2c-0.4,0.3-0.6,0.6-0.7,0.9c-0.1,0.3,0,0.6,0.2,0.8c0.4,0.5,1.1,0.2,1.9-0.1c0.7-0.3,1.3-0.6,1.6-0.1
					c0.2,0.2,0.2,0.5,0.1,0.7c-0.1,0.2-0.3,0.5-0.6,0.7c-0.7,0.5-1.3,0.6-1.7,0.2L190.7,68.7z"/>
			</g>
			<g>
				<path class="st13" d="M196.4,64.2c0.5,0.6,0.2,1.3-0.6,2c-1,0.8-1.7,0.6-2.2,0.1L194,66c0.4,0.5,1,0.3,1.6-0.2
					c0.6-0.4,0.8-0.9,0.5-1.3c-0.6-0.8-2.6,1.4-3.5,0.2c-0.4-0.5-0.3-1.2,0.5-1.9c0.9-0.7,1.6-0.5,2-0.1l-0.4,0.3
					c-0.3-0.3-0.8-0.3-1.4,0.1c-0.8,0.6-0.6,1-0.4,1.2C193.6,65.2,195.5,63.1,196.4,64.2z"/>
				<path class="st13" d="M194.6,66.9c-0.5,0-0.8-0.2-1-0.5l-0.1-0.1l0.6-0.5l0.1,0.1c0.4,0.5,1.1,0.1,1.4-0.2
					c0.3-0.2,0.4-0.4,0.5-0.6s0-0.4-0.1-0.5c-0.2-0.3-0.7-0.1-1.3,0.2c-0.8,0.3-1.6,0.7-2.1,0c-0.5-0.6-0.3-1.4,0.6-2
					c1-0.8,1.8-0.5,2.2-0.1l0.1,0.1l-0.6,0.4l-0.1-0.1c-0.3-0.3-0.7-0.2-1.2,0.1c-0.5,0.4-0.7,0.8-0.4,1.1c0.2,0.3,0.7,0,1.3-0.2
					c0.7-0.3,1.6-0.7,2.2,0l0,0c0.5,0.7,0.3,1.5-0.6,2.1C195.4,66.7,195,66.9,194.6,66.9z M193.8,66.3c0.5,0.5,1.2,0.4,2-0.2
					s1-1.3,0.6-1.8l0,0c-0.4-0.6-1.2-0.2-1.9,0.1c-0.6,0.3-1.2,0.6-1.6,0.1c-0.2-0.2-0.4-0.7,0.5-1.4c0.5-0.4,1.1-0.5,1.5-0.2
					l0.2-0.2c-0.4-0.3-1-0.4-1.8,0.2c-0.7,0.6-0.9,1.2-0.5,1.7s1.2,0.2,1.9-0.1c0.7-0.3,1.3-0.6,1.6-0.1c0.2,0.2,0.2,0.5,0.1,0.7
					c-0.1,0.2-0.3,0.5-0.6,0.7c-0.7,0.5-1.3,0.6-1.7,0.2L193.8,66.3z"/>
			</g>
			<g>
				<path class="st13" d="M195.8,61.5l0.9,1.1l1.8-1.4l0.3,0.4L197,63l0.9,1.1l2.1-1.6l0.3,0.4l-2.4,1.9l-2.6-3.3l2.4-1.9L198,60
					L195.8,61.5z"/>
				<path class="st13" d="M197.7,64.9l-2.7-3.5l2.6-2l0.4,0.5l-2.1,1.6l0.7,0.9l1.8-1.4l0.4,0.6L197,63l0.7,0.9l2.1-1.6l0.4,0.5
					L197.7,64.9z M195.3,61.4l2.4,3.1l2.3-1.7l-0.1-0.2l-2.1,1.6l-1-1.3l1.8-1.4l-0.1-0.2l-1.8,1.4l-1-1.3l2.1-1.6l-0.1-0.2
					L195.3,61.4z"/>
			</g>
		</g>
	</g>
</g>
<g>
	<g>
		<g>
			<g>
				<path class="st13" d="M170,117.3v0.4h-4.2v-1.8c0-0.8,0.5-1.3,1.3-1.3s1.1,0.5,1.2,0.9l1.7-1v0.5l-1.6,0.9v1.3L170,117.3
					L170,117.3z M168,117.3V116c0-0.4-0.2-0.9-0.8-0.9c-0.5,0-0.9,0.4-0.9,0.9v1.3H168z"/>
				<path class="st13" d="M170.2,117.9h-4.4V116c0-0.9,0.6-1.4,1.4-1.4c0.6,0,1.1,0.3,1.3,0.9l1.7-1v0.8l-1.6,0.9v1.1h1.6V117.9z
					 M166,117.6h4v-0.2h-1.6v-1.5l1.6-0.9v-0.2l-1.6,1v-0.2c-0.1-0.6-0.5-0.8-1.1-0.8c-0.7,0-1.2,0.4-1.2,1.2L166,117.6L166,117.6z
					 M168.1,117.4h-1.9V116c0-0.6,0.4-1,1-1c0.7,0,0.9,0.5,0.9,1V117.4z M166.4,117.2h1.4V116c0-0.2-0.1-0.8-0.7-0.8
					c-0.5,0-0.7,0.3-0.7,0.8V117.2z"/>
			</g>
			<g>
				<path class="st13" d="M166.3,113.5h1.4v-2.1h0.5v2.1h1.4v-2.4h0.5v2.8h-4.2v-2.8h0.5L166.3,113.5L166.3,113.5z"/>
				<path class="st13" d="M170.2,114h-4.4v-3h0.7v2.4h1.2v-2.1h0.7v2.1h1.2V111h0.7L170.2,114L170.2,114z M166,113.8h4v-2.6h-0.2
					v2.4h-1.6v-2.1H168v2.1h-1.6v-2.4H166V113.8z"/>
			</g>
			<g>
				<path class="st13" d="M168.9,107.5c0.8,0,1.2,0.6,1.2,1.5c0,1.1-0.6,1.6-1.3,1.6v-0.4c0.6,0,0.9-0.6,0.9-1.2s-0.2-1-0.7-1
					c-1,0-0.5,2.6-1.9,2.6c-0.7,0-1.2-0.5-1.2-1.4c0-1,0.6-1.5,1.2-1.5v0.4c-0.4,0-0.8,0.4-0.8,1.1c0,0.9,0.4,1,0.7,1
					C167.9,110.2,167.4,107.5,168.9,107.5z"/>
				<path class="st13" d="M168.7,110.8v-0.7h0.1c0.6,0,0.7-0.7,0.7-1.1s-0.1-0.9-0.6-0.9c-0.4,0-0.5,0.4-0.7,1.1s-0.4,1.6-1.3,1.6
					c-0.8,0-1.3-0.6-1.3-1.5c0-1.1,0.7-1.6,1.3-1.6h0.1v0.7h-0.1c-0.4,0-0.6,0.4-0.6,0.9c0,0.6,0.2,0.9,0.6,0.9c0.3,0,0.4-0.4,0.6-1
					c0.2-0.7,0.4-1.6,1.3-1.6c0.8,0,1.3,0.6,1.3,1.6c0,1.4-0.8,1.7-1.4,1.8L168.7,110.8z M168.9,110.3v0.2c0.7-0.1,1.1-0.6,1.1-1.5
					s-0.4-1.4-1.1-1.4c-0.7,0-0.9,0.7-1.1,1.4c-0.2,0.6-0.3,1.2-0.8,1.2c-0.2,0-0.8-0.1-0.8-1.1c0-0.6,0.3-1.1,0.8-1.2v-0.2
					c-0.5,0.1-1,0.5-1,1.4c0,0.8,0.4,1.3,1,1.3c0.7,0,0.9-0.7,1.1-1.4c0.2-0.6,0.3-1.2,0.9-1.2c0.5,0,0.9,0.4,0.9,1.2
					C169.8,109.8,169.5,110.3,168.9,110.3z"/>
			</g>
			<g>
				<path class="st13" d="M166.3,104.2v1.3h3.7v0.4h-3.7v1.3h-0.5v-3.1L166.3,104.2L166.3,104.2z"/>
				<path class="st13" d="M166.4,107.4h-0.7V104h0.7v1.3h3.7v0.7h-3.7V107.4z M166,107.1h0.2v-1.3h3.7v-0.2h-3.7v-1.3H166V107.1z"/>
			</g>
		</g>
	</g>
	<g>
		<g>
			<path class="st13" d="M167.9,131.8c0-0.2-0.1-0.4-0.4-0.5c-0.2-0.1-0.5-0.2-0.9-0.2h-1.7c-0.4,0-0.7-0.1-0.9-0.3
				s-0.3-0.5-0.3-0.8v-0.6h0.7v0.2c0,0.2,0.1,0.3,0.2,0.4c0.1,0.1,0.3,0.1,0.5,0.1h1.7c0.2,0,0.5,0,0.6,0.1c0.2,0.1,0.3,0.1,0.4,0.2
				c0.1,0.1,0.2,0.2,0.3,0.3s0.1,0.2,0.1,0.3l0,0c0-0.1,0.1-0.2,0.1-0.3c0.1-0.1,0.1-0.2,0.3-0.3c0.1-0.1,0.3-0.1,0.4-0.2
				c0.2-0.1,0.4-0.1,0.7-0.1h1.7c0.2,0,0.4,0,0.6-0.1c0.1-0.1,0.2-0.2,0.2-0.4v-0.2h0.7v0.6c0,0.3-0.1,0.6-0.3,0.8s-0.5,0.3-0.9,0.3
				H170c-0.4,0-0.7,0.1-0.9,0.2s-0.4,0.3-0.4,0.5H167.9z"/>
			<path class="st13" d="M169.1,128.9H168v-1.1h1.2L169.1,128.9L169.1,128.9z M171.7,128.9h-1.2v-1.1h1.2V128.9z"/>
			<path class="st13" d="M171.8,127.2l-8.2-1.5v-0.9l8.2,1.5V127.2z"/>
			<path class="st13" d="M171.8,124.7l-8.2-1.5v-0.9l8.2,1.5V124.7z"/>
			<path class="st13" d="M168.6,119.8c0,0.2,0.1,0.4,0.4,0.5s0.6,0.2,0.9,0.2h1.7c0.4,0,0.7,0.1,0.9,0.3s0.3,0.5,0.3,0.8v0.6h-0.7
				V122c0-0.2-0.1-0.3-0.2-0.4c-0.1-0.1-0.3-0.1-0.6-0.1h-1.7c-0.3,0-0.5,0-0.7-0.1s-0.3-0.1-0.4-0.2c-0.1-0.1-0.2-0.2-0.3-0.2
				c-0.1-0.1-0.1-0.2-0.1-0.3l0,0c0,0.1-0.1,0.2-0.1,0.3c-0.1,0.1-0.1,0.2-0.3,0.2c-0.1,0.1-0.3,0.1-0.4,0.2
				c-0.2,0.1-0.4,0.1-0.6,0.1H165c-0.2,0-0.4,0-0.5,0.1s-0.2,0.2-0.2,0.4v0.2h-0.7v-0.6c0-0.3,0.1-0.6,0.3-0.8s0.5-0.3,0.9-0.3h1.7
				c0.4,0,0.7-0.1,0.9-0.2s0.4-0.3,0.4-0.5C167.8,119.8,168.6,119.8,168.6,119.8z"/>
		</g>
	</g>
</g>
<g>
	<g>
		<g>
			<path class="st9" d="M40.9,61.6h-0.6v-2.5c0-0.7-0.4-1.1-1-1.1s-1.1,0.4-1.1,1.2v2.5h-0.6v-4.1h0.6v0.6c0.2-0.3,0.6-0.7,1.2-0.7
				c0.5,0,1,0.3,1.3,0.8c0.2-0.3,0.6-0.8,1.4-0.8c0.8,0,1.5,0.7,1.5,1.7v2.5H43v-2.5c0-0.7-0.4-1.1-1-1.1s-1.1,0.4-1.1,1.2V61.6z"/>
			<path class="st9" d="M43.7,61.7h-0.8v-2.6c0-0.6-0.4-1-0.9-1c-0.6,0-1,0.4-1,1.1v2.6h-0.8v-2.6c0-0.6-0.4-1-0.9-1
				c-0.6,0-1,0.4-1,1.1v2.6h-0.8v-4.3h0.8V58c0.2-0.2,0.6-0.5,1.1-0.5s1,0.3,1.3,0.7c0.2-0.3,0.6-0.7,1.4-0.7c0.8,0,1.6,0.6,1.6,1.8
				C43.7,59.3,43.7,61.7,43.7,61.7z M43.1,61.5h0.4v-2.4c0-1-0.7-1.6-1.4-1.6c-0.8,0-1.1,0.5-1.3,0.8l-0.1,0.2l-0.1-0.2
				c-0.2-0.5-0.7-0.8-1.2-0.8c-0.7,0-1,0.4-1.1,0.6l-0.2,0.3v-0.9h-0.4v3.9h0.4V59c0-0.7,0.5-1.3,1.2-1.3c0.6,0,1.1,0.5,1.1,1.3v2.4
				h0.4V59c0-0.7,0.5-1.3,1.2-1.3c0.6,0,1.1,0.5,1.1,1.3C43.1,59,43.1,61.5,43.1,61.5z"/>
		</g>
		<g>
			<path class="st9" d="M48.2,59.5c0,1.2-0.8,2.1-2,2.1s-2-0.9-2-2.1c0-1.2,0.8-2.1,2-2.1S48.2,58.4,48.2,59.5z M47.6,59.5
				c0-0.8-0.5-1.6-1.4-1.6s-1.4,0.7-1.4,1.6c0,0.8,0.5,1.6,1.4,1.6S47.6,60.4,47.6,59.5z"/>
			<path class="st9" d="M46.3,61.8c-1.2,0-2.1-0.9-2.1-2.2s0.9-2.2,2.1-2.2s2.1,0.9,2.1,2.2C48.3,60.9,47.5,61.8,46.3,61.8z
				 M46.3,57.5c-1.1,0-1.9,0.8-1.9,2s0.8,2,1.9,2s1.9-0.8,1.9-2C48.1,58.4,47.4,57.5,46.3,57.5z M46.3,61.2c-0.9,0-1.5-0.7-1.5-1.7
				s0.6-1.7,1.5-1.7s1.5,0.7,1.5,1.7C47.7,60.5,47.1,61.2,46.3,61.2z M46.3,58.1c-0.9,0-1.3,0.7-1.3,1.5c0,0.7,0.4,1.5,1.3,1.5
				c0.9,0,1.3-0.7,1.3-1.5C47.5,58.8,47.1,58.1,46.3,58.1z"/>
		</g>
		<g>
			<path class="st9" d="M53,59.5c0,1.2-0.8,2.1-1.9,2.1c-0.7,0-1.1-0.3-1.4-0.7v0.7H49v-5.7h0.6v2.3c0.3-0.4,0.8-0.7,1.4-0.7
				C52.2,57.4,53,58.4,53,59.5z M52.4,59.5c0-0.8-0.5-1.6-1.4-1.6s-1.4,0.7-1.4,1.6c0,0.8,0.5,1.6,1.4,1.6S52.4,60.4,52.4,59.5z"/>
			<path class="st9" d="M51,61.8c-0.5,0-1-0.2-1.3-0.5v0.5h-0.8v-6h0.8v2.1c0.3-0.4,0.8-0.5,1.3-0.5c1.2,0,2,0.9,2,2.2
				C53.1,60.8,52.2,61.8,51,61.8z M49.5,60.6l0.2,0.3c0.3,0.4,0.7,0.7,1.3,0.7c1.1,0,1.8-0.8,1.8-2s-0.8-2-1.8-2
				c-0.6,0-1,0.2-1.3,0.7l-0.2,0.3V56h-0.4v5.5h0.4V60.6z M51,61.2c-0.9,0-1.5-0.7-1.5-1.7s0.6-1.7,1.5-1.7s1.5,0.7,1.5,1.7
				S51.8,61.2,51,61.2z M51,58.1c-0.9,0-1.3,0.7-1.3,1.5c0,0.7,0.4,1.5,1.3,1.5c0.9,0,1.3-0.8,1.3-1.5C52.3,58.8,51.9,58.1,51,58.1z
				"/>
		</g>
		<g>
			<path class="st9" d="M54.4,56v0.8h-0.6V56H54.4z M53.7,57.5h0.6v4.1h-0.6V57.5z"/>
			<path class="st9" d="M54.4,61.7h-0.8v-4.3h0.8V61.7z M53.8,61.5h0.4v-3.9h-0.4V61.5z M54.5,56.9h-0.8v-1h0.8V56.9z M53.8,56.7
				h0.4v-0.6h-0.4V56.7z"/>
		</g>
		<g>
			<path class="st9" d="M56,61.6h-0.6v-5.7H56V61.6z"/>
			<path class="st9" d="M56.1,61.7h-0.8v-6h0.8V61.7z M55.5,61.5h0.4V56h-0.4V61.5z"/>
		</g>
		<g>
			<path class="st9" d="M59.9,60.4h0.7c-0.3,0.7-0.9,1.2-1.8,1.2c-1.2,0-2-0.9-2-2.1c0-1.2,0.8-2.1,2-2.1s2,0.9,2,2.1v0.2h-3.3
				c0.1,0.7,0.6,1.3,1.4,1.3C59.3,61.1,59.7,60.8,59.9,60.4z M57.4,59.2h2.7C60,58.5,59.5,58,58.7,58S57.5,58.5,57.4,59.2z"/>
			<path class="st9" d="M58.8,61.8c-1.2,0-2.1-0.9-2.1-2.2s0.9-2.2,2.1-2.2s2.1,0.9,2.1,2.2v0.3h-3.3c0.1,0.7,0.6,1.1,1.3,1.1
				c0.6,0,0.9-0.3,1.1-0.6v-0.1h0.9l-0.1,0.1C60.3,61.3,59.7,61.8,58.8,61.8z M58.7,57.5c-1.1,0-1.9,0.8-1.9,2s0.8,2,1.9,2
				c1,0,1.4-0.5,1.7-1H60c-0.3,0.4-0.7,0.7-1.2,0.7c-0.8,0-1.4-0.6-1.5-1.4v-0.1h3.3v-0.1C60.6,58.4,59.8,57.5,58.7,57.5z
				 M60.2,59.3h-2.9v-0.1c0.1-0.8,0.7-1.3,1.4-1.3C59.5,57.9,60,58.4,60.2,59.3L60.2,59.3z M57.5,59.1h2.4c-0.1-0.6-0.6-1-1.2-1
				S57.6,58.5,57.5,59.1z"/>
		</g>
	</g>
</g>
<g>
	<g>
		<g>
			<path class="st9" d="M43.9,143.7l-1,3.3h-0.7l-1.2-4.1h0.6l1,3.3l1-3.3h0.7l1,3.3l1-3.3h0.6l-1.2,4.1H45L43.9,143.7z"/>
			<path class="st9" d="M45.7,147h-0.8l-0.9-3l-0.9,3h-0.8l-1.3-4.3h0.9l0.9,3.1l0.9-3.1h0.8l0.9,3.1l0.9-3.1H47L45.7,147z
				 M45,146.8h0.5l1.2-3.9h-0.4l-1,3.6l-1.1-3.6h-0.5l-1.1,3.6l-1-3.6h-0.4l1.2,3.9h0.5l1.1-3.5L45,146.8z"/>
		</g>
		<g>
			<path class="st9" d="M50.3,145.8H51c-0.3,0.7-0.9,1.2-1.8,1.2c-1.2,0-2-0.9-2-2.1c0-1.2,0.8-2.1,2-2.1s2,0.9,2,2.1v0.2h-3.3
				c0.1,0.7,0.6,1.3,1.4,1.3C49.7,146.4,50.1,146.2,50.3,145.8z M47.8,144.6h2.7c-0.1-0.7-0.6-1.2-1.3-1.2S47.9,143.9,47.8,144.6z"
				/>
			<path class="st9" d="M49.2,147.1c-1.2,0-2.1-0.9-2.1-2.2s0.9-2.2,2.1-2.2s2.1,0.9,2.1,2.2v0.3H48c0.1,0.7,0.6,1.1,1.3,1.1
				c0.6,0,0.9-0.3,1.1-0.6v-0.1h0.9l-0.1,0.1C50.8,146.6,50.1,147.1,49.2,147.1z M49.1,142.9c-1.1,0-1.9,0.8-1.9,2s0.8,2,1.9,2
				c1,0,1.4-0.5,1.7-1h-0.4c-0.3,0.4-0.7,0.7-1.2,0.7c-0.8,0-1.4-0.6-1.5-1.4v-0.1H51V145C51,143.7,50.2,142.9,49.1,142.9z
				 M50.6,144.7h-2.9v-0.1c0.1-0.8,0.7-1.3,1.4-1.3c0.8,0,1.3,0.5,1.4,1.3L50.6,144.7z M47.9,144.5h2.4c-0.1-0.6-0.6-1-1.2-1
				C48.5,143.4,48.1,143.8,47.9,144.5z"/>
		</g>
		<g>
			<path class="st9" d="M55.8,144.9c0,1.2-0.8,2.1-1.9,2.1c-0.7,0-1.1-0.3-1.4-0.7v0.7h-0.6v-5.7h0.6v2.3c0.3-0.4,0.8-0.7,1.4-0.7
				C55,142.8,55.8,143.7,55.8,144.9z M55.2,144.9c0-0.8-0.5-1.6-1.4-1.6s-1.4,0.7-1.4,1.6c0,0.8,0.5,1.6,1.4,1.6
				S55.2,145.7,55.2,144.9z"/>
			<path class="st9" d="M53.9,147.1c-0.5,0-1-0.2-1.3-0.5v0.5h-0.8v-6h0.8v2.1c0.3-0.4,0.8-0.5,1.3-0.5c1.2,0,2,0.9,2,2.2
				C55.9,146.2,55,147.1,53.9,147.1z M52.3,145.9l0.2,0.3c0.3,0.4,0.7,0.7,1.3,0.7c1.1,0,1.8-0.8,1.8-2s-0.8-2-1.8-2
				c-0.6,0-1,0.2-1.3,0.7l-0.2,0.3v-2.5h-0.4v5.5h0.4V145.9z M53.8,146.5c-0.9,0-1.5-0.7-1.5-1.7s0.6-1.7,1.5-1.7s1.5,0.7,1.5,1.7
				S54.6,146.5,53.8,146.5z M53.8,143.4c-0.9,0-1.3,0.7-1.3,1.5s0.4,1.5,1.3,1.5c0.9,0,1.3-0.8,1.3-1.5S54.7,143.4,53.8,143.4z"/>
		</g>
	</g>
</g>
<g>
	<g>
		<g>
			<path class="st9" d="M45.8,204v0.8h-0.6V204H45.8z M45.2,205.5h0.6v4.1h-0.6V205.5z"/>
			<path class="st9" d="M45.9,209.7h-0.8v-4.3h0.8V209.7z M45.3,209.5h0.4v-3.9h-0.4V209.5z M45.9,204.9h-0.8v-1h0.8V204.9z
				 M45.3,204.7h0.4v-0.6h-0.4V204.7z"/>
		</g>
		<g>
			<path class="st9" d="M50.5,207.5c0,1.2-0.8,2.1-2,2.1s-2-0.9-2-2.1c0-1.2,0.8-2.1,2-2.1S50.5,206.4,50.5,207.5z M49.9,207.5
				c0-0.8-0.5-1.6-1.4-1.6s-1.4,0.7-1.4,1.6c0,0.8,0.5,1.6,1.4,1.6S49.9,208.4,49.9,207.5z"/>
			<path class="st9" d="M48.6,209.8c-1.2,0-2.1-0.9-2.1-2.2s0.9-2.2,2.1-2.2s2.1,0.9,2.1,2.2C50.6,208.9,49.8,209.8,48.6,209.8z
				 M48.6,205.5c-1.1,0-1.9,0.8-1.9,2s0.8,2,1.9,2s1.9-0.8,1.9-2S49.7,205.5,48.6,205.5z M48.6,209.2c-0.9,0-1.5-0.7-1.5-1.7
				s0.6-1.7,1.5-1.7s1.5,0.7,1.5,1.7S49.4,209.2,48.6,209.2z M48.6,206.1c-0.9,0-1.3,0.7-1.3,1.5s0.4,1.5,1.3,1.5
				c0.9,0,1.3-0.7,1.3-1.5S49.5,206.1,48.6,206.1z"/>
		</g>
		<g>
			<path class="st9" d="M51.8,209.6V206H51v-0.5h0.8V204h0.6v1.5h0.9v0.5h-0.9v3.6H51.8z"/>
			<path class="st9" d="M52.5,209.7h-0.8v-3.6h-0.8v-0.7h0.8v-1.5h0.8v1.5h0.9v0.7h-0.9V209.7z M51.9,209.5h0.4v-3.6h0.9v-0.3h-0.9
				v-1.5h-0.4v1.5h-0.8v0.3h0.8V209.5z"/>
		</g>
	</g>
</g>
<g class="st33">
	<g>
		<path class="st9" d="M214.1,135h-0.6l-0.6-1.3h-2.3L210,135h-0.6l2-4.6h0.7L214.1,135z M212.7,133.2l-0.9-2.3l-0.9,2.3H212.7z"/>
		<path class="st9" d="M215.2,135h-0.5v-4.6h2.1c1,0,1.6,0.6,1.6,1.5s-0.6,1.5-1.6,1.5h-1.6V135z M215.2,130.9v2h1.5
			c0.7,0,1.1-0.4,1.1-1s-0.4-1-1.1-1H215.2z"/>
		<path class="st9" d="M219.6,135h-0.5v-4.6h0.5V135z"/>
		<path class="st9" d="M222.7,130.9v1.6h2.6v0.5h-2.6v1.6h2.9v0.5h-3.4v-4.6h3.4v0.5h-2.9V130.9z"/>
		<path class="st9" d="M226.9,131.5v0.5c0.3-0.3,0.6-0.6,1.2-0.6c0.7,0,1.4,0.5,1.4,1.5v2H229v-2c0-0.6-0.4-1.1-1-1.1
			s-1.1,0.4-1.1,1.1v2h-0.5v-3.5h0.5V131.5z"/>
		<path class="st9" d="M233.1,132.1v-2h0.5v4.9h-0.5v-0.6c-0.3,0.4-0.7,0.6-1.3,0.6c-1,0-1.7-0.8-1.7-1.8s0.7-1.8,1.7-1.8
			C232.4,131.4,232.8,131.7,233.1,132.1z M233.1,133.2c0-0.7-0.4-1.3-1.2-1.3s-1.2,0.6-1.2,1.3s0.5,1.3,1.2,1.3
			S233.1,134,233.1,133.2z"/>
		<path class="st9" d="M235,134.4v2h-0.5v-4.9h0.5v0.6c0.3-0.4,0.7-0.6,1.3-0.6c1,0,1.7,0.8,1.7,1.8s-0.7,1.8-1.7,1.8
			C235.7,135.1,235.3,134.8,235,134.4z M235,133.2c0,0.7,0.4,1.3,1.2,1.3s1.2-0.6,1.2-1.3s-0.5-1.3-1.2-1.3S235,132.5,235,133.2z"/>
		<path class="st9" d="M241.9,133.2c0,1-0.7,1.8-1.7,1.8c-1.1,0-1.7-0.8-1.7-1.8s0.7-1.8,1.7-1.8S241.9,132.2,241.9,133.2z
			 M241.4,133.2c0-0.7-0.4-1.3-1.2-1.3s-1.2,0.6-1.2,1.3s0.4,1.3,1.2,1.3S241.4,134,241.4,133.2z"/>
		<path class="st9" d="M243.1,130.2v0.7h-0.6v-0.7H243.1z M242.6,131.5h0.5v3.5h-0.5V131.5z"/>
		<path class="st9" d="M244.6,131.5v0.5c0.3-0.3,0.6-0.6,1.2-0.6c0.7,0,1.4,0.5,1.4,1.5v2h-0.5v-2c0-0.6-0.4-1.1-1-1.1
			s-1.1,0.4-1.1,1.1v2H244v-3.5h0.6V131.5z"/>
		<path class="st9" d="M248.4,135v-3h-0.7v-0.5h0.7v-1.3h0.5v1.3h0.8v0.5h-0.8v3H248.4z"/>
		<path class="st9" d="M252.9,132.4h-0.5c0-0.3-0.3-0.5-0.9-0.5c-0.5,0-0.8,0.2-0.8,0.5c0,0.8,2.3,0.3,2.3,1.6c0,0.7-0.6,1-1.4,1
			c-1,0-1.5-0.5-1.5-1.2h0.5c0,0.4,0.3,0.7,1,0.7c0.3,0,0.9-0.1,0.9-0.6c0-0.9-2.3-0.3-2.3-1.6c0-0.6,0.5-1,1.4-1
			C252.4,131.4,252.8,131.9,252.9,132.4z"/>
	</g>
</g>
</svg>
